<?xml version="1.0" encoding="UTF-8"?><svg xmlns="http://www.w3.org/2000/svg" xmlns:xlink="http://www.w3.org/1999/xlink" viewBox="0 0 201.19 200.89"><defs><style>.cls-1{mix-blend-mode:multiply;opacity:.4;}.cls-2{fill:#a65b3c;}.cls-3{fill:#e1e6eb;}.cls-4{fill:#fff;}.cls-5{fill:#d2d9e1;}.cls-6{fill:#e43f5a;}.cls-7{isolation:isolate;}.cls-8{fill:#ff9a6c;}.cls-9{fill:#f0f2f5;}.cls-10{fill:#1f4068;}.cls-11{fill:#1b1a2e;}.cls-12{fill:#1f4168;}.cls-13{clip-path:url(#clippath);}.cls-14{fill:none;}.cls-15{fill:#ffc89f;}.cls-16{fill:#f9a21b;}</style><clipPath id="clippath"><rect class="cls-14" x=".3" width="200.89" height="200.89"/></clipPath></defs><g class="cls-7"><g id="Layer_1"><g><g><rect class="cls-14" y="48.22" width="175.66" height="98.81"/><g class="cls-13"><g><g><path class="cls-9" d="M69.85,99.11v-5.86h-2.37v4.73h-2.36v2.36h3.49c.68,0,1.24-.55,1.24-1.24Z"/><polygon class="cls-9" points="65.12 88.53 67.49 88.53 67.49 90.89 69.85 90.89 69.85 86.16 67.49 86.16 67.49 83.8 65.12 83.8 65.12 88.53"/><polygon class="cls-9" points="62.76 71.97 62.76 74.34 65.12 74.34 65.12 81.43 67.49 81.43 67.49 83.8 69.85 83.8 69.85 81.43 69.85 79.07 67.49 79.07 67.49 76.7 69.85 76.7 69.85 71.97 65.12 71.97 62.76 71.97"/><path class="cls-9" d="M62.76,81.43h-4.73v-2.36h-2.36v2.36h-2.36v-2.36h-2.36v7.09h-2.36v-2.36h-7.09v2.36h-2.36v2.36h2.36v4.73h2.36v-7.09h2.36v2.36h4.73v2.36h-4.73v2.36h2.36v4.73h2.36v2.36h4.73v-2.36h-2.36v-2.36h4.73v2.36h2.36v2.36h2.36v-2.36h2.36v-7.09h-2.36v-7.09h2.36v-2.36h-2.36Zm-4.73,11.82h-4.73v-2.36h4.73v2.36Zm-4.73-4.73v-4.73h2.36v2.36h2.36v-2.36h2.36v4.73h-7.09Zm9.46,7.09h-2.36v-2.36h2.36v2.36Z"/><rect class="cls-9" x="60.39" y="76.7" width="2.36" height="2.36"/><path class="cls-9" d="M53.3,50.69v16.55h16.55v-15.32c0-.68-.55-1.24-1.24-1.24h-15.32Zm14.19,14.19h-11.82v-11.82h11.82v11.82Z"/><rect class="cls-9" x="58.03" y="55.42" width="7.09" height="7.09"/><rect class="cls-9" x="48.57" y="64.88" width="2.36" height="2.36"/><path class="cls-9" d="M43.84,57.78h2.36v2.36h2.36v2.36h2.36v-4.73h-2.36v-2.36h2.36v-4.73h-11.82v4.73h2.36v4.73h2.36v-2.36Zm0-4.73h2.36v2.36h-2.36v-2.36Z"/><polygon class="cls-9" points="39.11 100.35 46.2 100.35 46.2 97.98 43.84 97.98 43.84 95.62 41.47 95.62 41.47 93.25 39.11 93.25 39.11 100.35"/><path class="cls-9" d="M21.43,100.35h15.32v-16.55H20.19v15.32c0,.68,.55,1.24,1.24,1.24Zm1.13-14.19h11.82v11.82h-11.82v-11.82Z"/><rect class="cls-9" x="32.02" y="69.61" width="4.73" height="2.36"/><polygon class="cls-9" points="43.84 81.43 43.84 79.07 41.47 79.07 41.47 74.34 46.2 74.34 46.2 79.07 48.57 79.07 48.57 76.7 53.3 76.7 53.3 74.34 58.03 74.34 58.03 76.7 60.39 76.7 60.39 74.34 60.39 71.97 58.03 71.97 58.03 69.61 50.93 69.61 50.93 74.34 48.57 74.34 48.57 71.97 48.57 67.24 46.2 67.24 46.2 62.51 43.84 62.51 43.84 67.24 41.47 67.24 41.47 60.15 39.11 60.15 39.11 79.07 32.02 79.07 32.02 81.43 39.11 81.43 39.11 83.8 41.47 83.8 41.47 81.43 43.84 81.43"/><rect class="cls-9" x="24.92" y="88.53" width="7.09" height="7.09"/><polygon class="cls-9" points="20.19 69.61 20.19 74.34 24.92 74.34 24.92 71.97 27.29 71.97 27.29 69.61 20.19 69.61"/><polygon class="cls-9" points="29.65 76.7 36.75 76.7 36.75 74.34 32.02 74.34 32.02 71.97 27.29 71.97 27.29 79.07 24.92 79.07 24.92 79.1 22.5 79.1 22.5 76.74 20.19 76.74 20.19 81.43 29.65 81.43 29.65 76.7"/><path class="cls-9" d="M36.75,50.69h-15.32c-.68,0-1.24,.55-1.24,1.24v15.32h16.55v-16.55Zm-2.37,14.19h-11.82v-11.82h11.82v11.82Z"/><rect class="cls-9" x="24.92" y="55.42" width="7.09" height="7.09"/></g><g><path class="cls-9" d="M160.56,123.77c-1.56-.65-3.35,.09-4,1.65l-6.26-2.61c-.69-.29-1.01-1.08-.73-1.77l15.78-37.87c.29-.69,1.08-1.01,1.77-.73l6.26,2.61c-.65,1.56,.09,3.35,1.65,4,1.56,.65,3.35-.09,4-1.65l6.26,2.61c.69,.29,1.01,1.08,.73,1.77l-15.78,37.87c-.29,.69-1.08,1.01-1.77,.73l-6.26-2.61c.65-1.56-.09-3.35-1.65-4Z"/><g><rect class="cls-3" x="163.61" y="106.74" width="2.5" height="13.47" transform="translate(333.01 4.94) rotate(112.62)"/><rect class="cls-3" x="165.2" y="104.42" width="1.25" height="13.47" transform="translate(332.2 .84) rotate(112.62)"/><rect class="cls-3" x="166.12" y="102.96" width=".62" height="13.47" transform="translate(331.7 -1.74) rotate(112.62)"/><rect class="cls-3" x="168.33" y="95.4" width="2.5" height="13.47" transform="translate(329.08 -15.11) rotate(112.62)"/><rect class="cls-3" x="169.92" y="93.08" width="1.25" height="13.47" transform="translate(328.28 -19.22) rotate(112.62)"/><rect class="cls-3" x="170.84" y="91.63" width=".62" height="13.47" transform="translate(327.78 -21.79) rotate(112.62)"/><rect class="cls-3" x="168.54" y="97.15" width=".62" height="13.47" transform="translate(329.69 -12.01) rotate(112.62)"/><rect class="cls-3" x="166.02" y="100.93" width="2.52" height="13.47" transform="translate(330.99 -5.34) rotate(112.62)"/><rect class="cls-3" x="167.61" y="98.61" width="1.26" height="13.47" transform="translate(330.19 -9.44) rotate(112.62)"/></g><g><g><rect class="cls-3" x="171.81" y="122.35" width=".54" height="1.61" transform="translate(351.94 11.69) rotate(112.62)"/><rect class="cls-3" x="169.07" y="121.21" width=".54" height="1.61" transform="translate(347.09 12.64) rotate(112.62)"/><rect class="cls-3" x="166.32" y="120.07" width=".54" height="1.61" transform="translate(342.25 13.59) rotate(112.62)"/><rect class="cls-3" x="163.58" y="118.93" width=".54" height="1.61" transform="translate(337.4 14.54) rotate(112.62)"/><rect class="cls-3" x="160.84" y="117.79" width=".54" height="1.61" transform="translate(332.55 15.49) rotate(112.62)"/><rect class="cls-3" x="158.1" y="116.65" width=".54" height="1.61" transform="translate(327.7 16.44) rotate(112.62)"/><rect class="cls-3" x="155.36" y="115.5" width=".54" height="1.61" transform="translate(322.85 17.38) rotate(112.62)"/><rect class="cls-3" x="152.62" y="114.36" width=".54" height="1.61" transform="translate(318.01 18.33) rotate(112.62)"/></g><g><rect class="cls-3" x="182.43" y="96.85" width=".54" height="1.61" transform="translate(343.12 -33.43) rotate(112.62)"/><rect class="cls-3" x="179.69" y="95.71" width=".54" height="1.61" transform="translate(338.27 -32.48) rotate(112.62)"/><rect class="cls-3" x="176.95" y="94.57" width=".54" height="1.61" transform="translate(333.42 -31.53) rotate(112.62)"/><rect class="cls-3" x="174.21" y="93.42" width=".54" height="1.61" transform="translate(328.57 -30.59) rotate(112.62)"/><rect class="cls-3" x="171.47" y="92.28" width=".54" height="1.61" transform="translate(323.72 -29.64) rotate(112.62)"/><rect class="cls-3" x="168.73" y="91.14" width=".54" height="1.61" transform="translate(318.88 -28.69) rotate(112.62)"/><rect class="cls-3" x="165.99" y="90" width=".54" height="1.61" transform="translate(314.03 -27.74) rotate(112.62)"/><rect class="cls-3" x="163.25" y="88.86" width=".54" height="1.61" transform="translate(309.18 -26.79) rotate(112.62)"/></g></g></g><g><path class="cls-9" d="M143.03,38.94v6.47c0,1.43,1.16,2.59,2.59,2.59h15.88c1.43,0,2.59-1.16,2.59-2.59v-6.47h-1.39v6.47c0,.66-.54,1.2-1.2,1.2h-15.88c-.66,0-1.2-.54-1.2-1.2v-6.47h-1.39Z"/><path class="cls-9" d="M161.5,26.95h-15.88c-1.43,0-2.59,1.16-2.59,2.59v7.24h-2.68c-.38,0-.7,.31-.7,.7s.31,.7,.7,.7h26.42c.38,0,.7-.31,.7-.7s-.31-.7-.7-.7h-2.68v-7.24c0-1.43-1.16-2.59-2.59-2.59Zm-17.08,2.59c0-.66,.54-1.2,1.2-1.2h15.88c.66,0,1.2,.54,1.2,1.2v7.24h-18.28v-7.24Z"/><path class="cls-9" d="M164.54,22.5h-2.83c-.38,0-.7,.31-.7,.7s.31,.7,.7,.7h2.83c1.77,0,3.21,1.44,3.21,3.21v2.83c0,.38,.31,.7,.7,.7s.7-.31,.7-.7v-2.83c0-2.54-2.06-4.6-4.6-4.6Z"/><path class="cls-9" d="M138.68,30.63c.38,0,.7-.31,.7-.7v-2.83c0-1.77,1.44-3.21,3.21-3.21h2.83c.38,0,.7-.31,.7-.7s-.31-.7-.7-.7h-2.83c-2.54,0-4.6,2.06-4.6,4.6v2.83c0,.38,.31,.7,.7,.7Z"/><path class="cls-9" d="M145.42,51.06h-2.83c-1.77,0-3.21-1.44-3.21-3.21v-2.83c0-.38-.31-.7-.7-.7s-.7,.31-.7,.7v2.83c0,2.54,2.06,4.6,4.6,4.6h2.83c.38,0,.7-.31,.7-.7s-.31-.7-.7-.7Z"/><path class="cls-9" d="M168.44,44.33c-.38,0-.7,.31-.7,.7v2.83c0,1.77-1.44,3.21-3.21,3.21h-2.83c-.38,0-.7,.31-.7,.7s.31,.7,.7,.7h2.83c2.54,0,4.6-2.06,4.6-4.6v-2.83c0-.38-.31-.7-.7-.7Z"/></g><g><path class="cls-9" d="M16.01,130.61s4.33,1.62,8.46,5.7c3.92,3.88,6.07,7.57,6.07,7.57-3.16-.95-6.17-2.61-8.77-4.99-2.6-2.38-4.53-5.22-5.76-8.28Z"/><path class="cls-9" d="M26.58,144.77c2.39,.11,4.63,.76,6.6,1.83h0c-2.07,.87-4.35,1.31-6.75,1.2-2.39-.11-4.63-.76-6.6-1.83,2.07-.87,4.35-1.31,6.74-1.2Z"/><path class="cls-9" d="M35.26,132.44c.47,2.19,.47,4.52-.09,6.85-.56,2.33-1.62,4.4-3.03,6.14-.47-2.19-.47-4.52,.09-6.85,.56-2.33,1.62-4.4,3.03-6.14Z"/><path class="cls-9" d="M26.96,164.08c-2.76-1.53-3.26-3.25-1.95-5.25,1.31-2,3.01-3.6,4.94-4.75,0,0-.2,3.32-2.4,6.42-1.1,1.55-1.28,2.69-.59,3.59Z"/><path class="cls-9" d="M28.35,151.33c.06-.02,.13-.04,.19-.05l.33-.09c.11-.03,.22-.05,.33-.08l.16-.04,.17-.04,.33-.07c.44-.09,.89-.16,1.33-.22,.89-.11,1.79-.18,2.69-.2,.89-.01,1.78,.02,2.67,.13l-.06-.08c-.6-.8-1.22-1.58-1.86-2.34-.64-.77-1.3-1.51-1.98-2.25-.34-.37-.68-.73-1.03-1.08-.35-.36-.7-.71-1.07-1.05,.37,.34,.72,.69,1.08,1.04,.35,.35,.7,.71,1.04,1.08,.68,.73,1.34,1.48,1.99,2.24,.64,.76,1.27,1.54,1.87,2.34,.17,.22,.33,.44,.5,.67,.04-.3,.09-.6,.16-.89,.07-.3,.16-.6,.25-.9,.1-.29,.21-.59,.33-.87,.12-.29,.25-.57,.39-.84-.06,.14-.13,.28-.19,.43-.06,.14-.12,.29-.18,.43-.11,.29-.22,.58-.32,.87-.1,.29-.18,.59-.26,.89l-.06,.23c-.02,.08-.03,.15-.05,.23-.03,.14-.06,.29-.08,.43,.43,.58,.85,1.17,1.25,1.76,.14,.21,.28,.41,.41,.62,.14,.21,.28,.42,.41,.63l.4,.63,.39,.64c.06,.11,.13,.21,.19,.32l.19,.33,.19,.33c.06,.11,.12,.22,.18,.33l.36,.66,.09,.16,.09,.17,.17,.33c.23,.44,.44,.9,.66,1.34,.11,.23,.21,.46,.31,.68l.15,.34c.05,.11,.1,.23,.14,.35l.29,.69,.27,.7,.13,.35,.12,.35,.16,.45h.03c-.02-.61-.04-1.23-.06-1.84-.06-1.58-.14-3.15-.24-4.73-.1-1.58-.21-3.15-.35-4.72-.08-.94-.17-1.87-.26-2.81-.3,.2-.61,.36-.93,.47-2.08,.72-4.33-.13-4.33-.13,.96-.94,2.13-1.68,3.49-2.14,.51-.17,1.02-.3,1.53-.38l-.1-.9-.14-1.17c-.01-.09-.02-.18-.03-.27-1.94,2.05-4,2.94-4,2.94h0c.44-2.2,1.36-4.34,2.79-6.26,.21-.27,.42-.51,.64-.71l-.06-.4-.09-.58-.1-.58-.1-.58c-.03-.19-.06-.39-.1-.58l-.21-1.16c-.03-.19-.07-.39-.11-.58l-.11-.58-.11-.58c-.04-.19-.08-.39-.12-.58l-.02-.1c-.13-.03-3.27-.88-5.84-3.57-1.31-1.37-2.4-1.76-3.41-1.25,2.02-2.42,3.81-2.59,5.52-.92,1.71,1.66,2.95,3.62,3.73,5.71l-.22-1.02c-.21-.94-.43-1.87-.67-2.8h-.01v-.02c-.14-.59-.3-1.18-.46-1.77h0s-2.76-3.26-5.1-8.26c-2.47-5.26-2.54-9.88-2.54-9.88,2.47,2.19,4.51,4.96,5.87,8.2,1.37,3.25,1.93,6.64,1.77,9.93,.16,.58,.32,1.17,.47,1.76,.1-.34,.89-2.93,2.65-5.88,1.99-3.34,4.52-5.11,4.52-5.11-.29,2.19-1.05,4.35-2.34,6.33-1.28,1.97-2.94,3.54-4.82,4.69,.24,.93,.47,1.86,.68,2.8l.25,1.16c.04,.19,.08,.39,.12,.58l.12,.58,.12,.58c.04,.19,.08,.39,.11,.58l.21,1.16c.16,.9,.31,1.81,.45,2.71,1.31-1.16,2.91-.98,4.93,.78-1.08-.35-2.09,.21-3.18,1.77-.38,.54-.78,1.03-1.19,1.46,.1,.79,.2,1.58,.29,2.38,.84-.13,1.68-.14,2.5-.04,.04-.02-1,1.36-2.27,2.2,.09,.94,.18,1.89,.26,2.83,.13,1.57,.25,3.15,.34,4.72,.13,2.19,.23,4.38,.29,6.57h.06l.03-.56v-.2l.02-.1v-.1l.05-.41,.04-.41,.02-.2,.03-.2,.1-.81v-.1l.03-.1,.03-.2,.06-.4,.06-.4,.07-.4c.05-.27,.1-.54,.15-.8l.17-.8c.47-2.13,1.08-4.22,1.8-6.28,.36-1.03,.74-2.05,1.15-3.05,.41-1.01,.84-2.01,1.29-3,.6-1.31,1.23-2.61,1.91-3.88-1.83-1.29-3.41-2.99-4.57-5.07-1.17-2.09-1.8-4.33-1.95-6.57,1.84,1.29,3.42,3,4.59,5.09,1.16,2.08,1.8,4.31,1.95,6.53,.34-.64,.69-1.27,1.06-1.9-.27,.47-.54,.95-.79,1.43-.09,.17-.18,.33-.26,.5h0c-.16,.32-.33,.63-.49,.95-.49,.97-.96,1.95-1.41,2.94-.34,.75-.67,1.51-.99,2.27,.83-.34,1.68-.6,2.55-.82,.87-.22,1.76-.39,2.65-.52,.45-.06,.89-.1,1.34-.14l.34-.02h.17l.17-.02c.11,0,.22,0,.34-.01h.34c.11,0,.23,0,.34,0,.11,0,.23,0,.34,0,.22,0,.45,.01,.67,.03,.45,.03,.9,.08,1.34,.14,2.11-.76,4.42-1.07,6.8-.83,2.38,.24,4.58,1.02,6.49,2.19,.1,0-3.86,2.13-6.8,1.85-3.67-.35-6.5-3.21-6.5-3.21h0c-.45-.05-.89-.1-1.34-.12-.22-.02-.45-.02-.67-.03-.11,0-.22,0-.34,0-.11,0-.22,0-.34,0h-.34c-.11,0-.22,.02-.34,.02h-.17l-.17,.02-.34,.02c-.45,.04-.9,.08-1.34,.14-.89,.12-1.78,.29-2.65,.5-.44,.11-.87,.23-1.3,.36-.42,.13-.84,.27-1.25,.43-.1,.24-.2,.48-.3,.73-.41,1.01-.79,2.03-1.15,3.06-.72,2.05-1.34,4.14-1.81,6.27l-.17,.8c-.05,.27-.1,.53-.15,.8l-.07,.4-.06,.4-.06,.4-.03,.2-.02,.1v.1l-.12,.81-.03,.2-.02,.2-.04,.41-.04,.41v.1l-.02,.1v.2l-.05,.56h8.29v2.83h0v.13h0v13.65h-16.61v-16.61h8.21l-.16-.45-.12-.35-.13-.35-.27-.7-.29-.69c-.05-.11-.09-.23-.15-.34l-.15-.34c-.1-.23-.2-.46-.31-.68-.22-.45-.43-.9-.66-1.34l-.17-.33-.09-.17-.09-.16-.36-.66c-.06-.11-.12-.22-.18-.33l-.19-.32-.19-.32c-.06-.11-.13-.21-.19-.32l-.39-.64-.4-.63c-.13-.21-.27-.42-.41-.63-.14-.21-.27-.42-.42-.62-.54-.8-1.1-1.58-1.68-2.35-.44-.05-.88-.08-1.32-.09-.45-.02-.9-.02-1.35-.01-.47,0-.94,.03-1.4,.07-.26,.23-.5,.48-.73,.74-.17,.2-.34,.4-.5,.6,.94,.6,1.76,1.42,2.39,2.43,.63,1.02,1,2.12,1.12,3.24-.95-.6-1.77-1.42-2.41-2.44-.63-1.01-.99-2.1-1.11-3.21-.06,.07-.11,.14-.16,.22-.06,.07-.11,.15-.16,.22-.05,.07-.11,.15-.15,.22l-.15,.23s-.05,.08-.07,.11l-.07,.12c-.19,.31-.36,.63-.52,.95l.11-.25c.04-.08,.07-.16,.12-.24l.13-.24c.04-.08,.09-.16,.13-.24,.18-.31,.38-.61,.59-.91,.21-.29,.44-.57,.69-.84,.12-.13,.25-.26,.38-.39,.12-.11,.24-.23,.37-.33-.43,.03-.86,.08-1.28,.14-.45,.06-.89,.13-1.33,.22l-.33,.07-.17,.03-.16,.04c-.11,.03-.22,.05-.33,.08l-.33,.08c-.06,.01-.12,.03-.18,.05-.83,.74-1.84,1.31-2.98,1.64-1.15,.33-2.31,.38-3.42,.2,.84-.75,1.85-1.32,3-1.65,1.14-.33,2.29-.38,3.38-.2Z"/><path class="cls-9" d="M62.11,122.36c-.36,3.28-1.43,6.54-3.29,9.54-1.86,3-4.3,5.41-7.08,7.19,0,0,1.07-4.14,3.79-8.93,2.87-5.06,6.59-7.79,6.59-7.79Z"/><path class="cls-9" d="M49.99,142.41c1.61-1.56,3.59-2.8,5.86-3.56,2.27-.76,4.59-.96,6.82-.68-1.61,1.56-3.59,2.8-5.86,3.55-2.27,.76-4.59,.96-6.82,.68Z"/><path class="cls-9" d="M51.63,150.08c.33-1.14,.9-2.15,1.64-2.98-.21-.16-.43-.3-.65-.44-.3-.19-.61-.38-.94-.53,.17,.07,.33,.15,.49,.24,.16,.09,.32,.18,.47,.27,.31,.19,.6,.4,.89,.62,.28,.22,.56,.46,.82,.71,.06,.06,.13,.12,.19,.19l.19,.2c.06,.06,.12,.13,.18,.2l.18,.21c-.24-.26-.49-.53-.76-.77l-.1-.09s-.07-.06-.1-.09l-.2-.18c-.07-.06-.14-.11-.21-.17-.07-.06-.14-.11-.21-.17-.07-.06-.14-.11-.22-.17,.18,1.1,.13,2.25-.2,3.39-.33,1.15-.91,2.16-1.65,3-.19-1.11-.13-2.27,.2-3.42Z"/><path class="cls-9" d="M60.68,157.55c.42-1.05-.06-2.1-1.54-3.29-2.96-2.38-4.06-5.52-4.06-5.52,2.16,.59,4.23,1.66,6.04,3.23,1.81,1.57,1.79,3.36-.44,5.58Z"/><rect class="cls-3" x="33.72" y="178.52" width="19.84" height="1.52" transform="translate(87.28 358.56) rotate(180)"/><rect class="cls-3" x="35.33" y="166.48" width="16.61" height=".33" transform="translate(87.28 333.29) rotate(180)"/></g><g><rect class="cls-3" x="146.34" y="157.83" width="22.21" height="22.21" rx="11.1" ry="11.1"/><rect class="cls-9" x="139.26" y="157.83" width="22.21" height="22.21" rx="11.1" ry="11.1"/><polygon class="cls-3" points="147.9 175.01 142.36 169.47 144.05 167.78 147.9 171.63 156.67 162.86 158.36 164.55 147.9 175.01"/></g><g><rect class="cls-3" x="155.83" y="142.12" width="15.67" height="15.67" rx="7.84" ry="7.84"/><rect class="cls-9" x="150.97" y="142.12" width="15.67" height="15.67" rx="7.84" ry="7.84"/><polygon class="cls-3" points="157.07 154.25 153.16 150.34 154.35 149.15 157.07 151.86 163.25 145.67 164.45 146.87 157.07 154.25"/></g><g><rect class="cls-3" x="47.51" y="18.5" width="22.35" height="22.35" rx="11.17" ry="11.17"/><rect class="cls-9" x="40.37" y="18.5" width="22.35" height="22.35" rx="11.17" ry="11.17"/><polygon class="cls-3" points="49.07 35.79 43.49 30.21 45.19 28.51 49.07 32.38 57.89 23.56 59.59 25.26 49.07 35.79"/></g><g><rect class="cls-9" x="84.67" y="16.64" width="41.75" height="7.15" rx="2.19" ry="2.19"/><path class="cls-3" d="M114.3,16.64v7.15h-27.44c-1.21,0-2.19-.98-2.19-2.19v-2.77c0-1.21,.98-2.19,2.19-2.19h27.44Z"/><g><path class="cls-9" d="M107.91,11.55h.92c-.12,.3-.22,.6-.3,.88-.05,.17-.09,.37-.14,.59-.05,.22-.09,.46-.13,.72-.04,.26-.07,.54-.09,.83h.28c.02-.28,.05-.55,.08-.81,.04-.26,.08-.5,.13-.73,.05-.23,.09-.43,.14-.62,.07-.28,.13-.49,.19-.65,.05-.16,.08-.23,.08-.22v-.2h-1.16v.21Z"/><path class="cls-9" d="M110.4,12.63c-.08-.06-.19-.09-.34-.09-.05,0-.1,.02-.15,.04-.05,.03-.09,.07-.13,.12v-.44c0-.2,0-.35,.02-.45,.01-.11,.04-.18,.08-.22,.04-.04,.1-.06,.18-.06,.07,0,.12,.02,.16,.06,.03,.04,.05,.11,.06,.21s.01,.24,.01,.42v.06h.28v-.06c0-.21-.01-.38-.04-.51-.02-.14-.07-.24-.14-.3-.07-.07-.18-.1-.32-.1-.16,0-.27,.03-.35,.1-.08,.07-.13,.17-.16,.31-.03,.14-.04,.32-.04,.54v1.39c0,.14,0,.26,.02,.38,.01,.12,.04,.22,.07,.31,.04,.09,.09,.16,.17,.21,.08,.05,.18,.07,.3,.07,.15,0,.26-.03,.34-.1,.08-.07,.14-.16,.17-.29,.03-.13,.05-.28,.05-.46v-.21c0-.25-.02-.44-.05-.59-.03-.15-.09-.25-.17-.32Zm-.06,1.12c0,.17,0,.3-.02,.39-.02,.09-.04,.15-.08,.18-.04,.03-.1,.05-.17,.05-.09,0-.16-.03-.2-.08-.04-.05-.07-.13-.08-.24-.01-.11-.02-.25-.02-.42v-.77s.03-.01,.06-.03c.03-.02,.06-.03,.1-.05,.04-.01,.09-.02,.15-.02,.07,0,.13,.02,.16,.07,.04,.05,.06,.13,.08,.25,.01,.12,.02,.27,.02,.47v.19Z"/><path class="cls-9" d="M114.27,12.7c-.03-.11-.08-.19-.15-.23-.07-.04-.18-.07-.31-.07s-.24,.02-.31,.07c-.07,.04-.12,.12-.15,.23-.03,.11-.04,.27-.04,.47v.65c0,.21,.01,.37,.04,.48,.03,.11,.08,.19,.15,.24,.07,.05,.18,.07,.31,.07s.24-.02,.31-.07c.07-.05,.12-.13,.15-.24,.03-.11,.04-.28,.04-.48v-.65c0-.2-.01-.36-.04-.47Zm-.21,1.25c0,.16-.02,.26-.05,.32-.03,.06-.1,.08-.2,.08s-.16-.03-.2-.08c-.04-.06-.05-.16-.05-.32v-.92c0-.15,.02-.25,.05-.31,.04-.05,.1-.08,.2-.08s.16,.03,.2,.08c.04,.05,.05,.15,.05,.31v.92Z"/><path class="cls-9" d="M112.03,13.19c.03-.11,.04-.28,.04-.48v-.65c0-.2-.01-.36-.04-.47-.03-.11-.08-.19-.15-.23-.07-.04-.18-.07-.31-.07s-.24,.02-.31,.07c-.07,.04-.12,.12-.15,.23-.03,.11-.04,.27-.04,.47v.65c0,.21,.01,.37,.04,.48,.03,.11,.08,.19,.15,.24,.07,.05,.18,.07,.31,.07s.24-.02,.31-.07c.07-.05,.12-.13,.15-.24Zm-.21-.34c0,.16-.02,.26-.05,.32-.03,.06-.1,.08-.2,.08s-.16-.03-.2-.08c-.04-.06-.05-.16-.05-.32v-.92c0-.15,.02-.25,.05-.31,.04-.05,.1-.08,.2-.08s.16,.03,.2,.08c.03,.05,.05,.15,.05,.31v.92Z"/><polygon class="cls-9" points="113.23 11.33 111.89 14.56 112.17 14.56 113.49 11.33 113.23 11.33"/></g><g><polygon class="cls-9" points="87.07 10.77 86.75 10.77 86.75 14.56 87.75 14.56 87.75 14.3 87.07 14.3 87.07 10.77"/><path class="cls-9" d="M89.23,11.6c-.04-.1-.1-.17-.19-.23-.08-.05-.2-.08-.34-.08-.19,0-.33,.05-.42,.14-.09,.09-.15,.22-.18,.39-.03,.16-.04,.35-.04,.55v1.08c0,.17,0,.32,.02,.46,.01,.14,.04,.26,.08,.36s.11,.18,.19,.24c.09,.06,.2,.08,.35,.08s.27-.03,.35-.09c.08-.06,.15-.14,.19-.24,.04-.1,.06-.22,.07-.36,.01-.14,.02-.29,.02-.46v-1.08c0-.15,0-.29-.02-.42-.01-.13-.04-.24-.08-.34Zm-.23,1.96c0,.15,0,.28-.02,.39-.01,.11-.04,.2-.09,.26-.04,.06-.11,.09-.2,.09-.09,0-.16-.03-.21-.09-.05-.06-.08-.15-.09-.26-.01-.11-.02-.24-.02-.39v-1.27c0-.14,0-.27,.02-.37,.01-.11,.04-.19,.09-.25,.05-.06,.12-.09,.21-.09,.09,0,.16,.03,.2,.09,.04,.06,.07,.15,.08,.25,.01,.11,.02,.23,.02,.37v1.27Z"/><path class="cls-9" d="M91.06,11.59c-.04-.1-.09-.17-.18-.22-.08-.05-.2-.08-.35-.08s-.27,.03-.35,.08c-.08,.06-.14,.13-.18,.22-.04,.09-.06,.2-.07,.32,0,.12-.01,.25-.01,.37v.09h.32v-.08c0-.18,0-.32,.02-.42s.04-.18,.08-.23c.04-.05,.11-.07,.2-.07s.16,.02,.2,.07c.04,.05,.06,.13,.07,.23s.01,.24,.01,.4v.22c-.13,.06-.25,.11-.37,.16-.11,.05-.21,.11-.3,.17-.09,.06-.15,.13-.2,.21-.05,.08-.07,.18-.07,.29v.41c0,.27,.04,.47,.13,.62,.09,.14,.21,.22,.39,.22,.09,0,.16-.02,.22-.05,.06-.03,.11-.07,.14-.11,.03-.04,.05-.08,.06-.1v.24h.32v-2.1c0-.19,0-.36,0-.5,0-.14-.03-.27-.06-.37Zm-.25,2.51s-.07,.09-.14,.14c-.07,.05-.14,.07-.23,.07-.1,0-.17-.05-.2-.14-.03-.09-.05-.24-.05-.46v-.26c0-.1,0-.19,.02-.25,.02-.07,.04-.12,.09-.17,.04-.05,.1-.09,.19-.13,.08-.04,.19-.09,.32-.15v1.35Z"/><path class="cls-9" d="M92.63,11.56c-.03-.07-.07-.13-.13-.19-.06-.05-.13-.08-.21-.08-.17,0-.29,.05-.38,.14-.09,.1-.14,.23-.17,.39-.03,.17-.04,.35-.04,.56v1.13c0,.2,.01,.38,.04,.54,.02,.16,.07,.29,.15,.38,.07,.09,.18,.14,.33,.14,.08,0,.16-.02,.24-.06,.08-.04,.14-.11,.19-.21v.25h.32v-3.84h-.32v.84Zm0,2.06c0,.21-.01,.36-.04,.46-.03,.1-.07,.16-.12,.19-.05,.03-.11,.04-.18,.04-.08,0-.15-.03-.19-.09-.04-.06-.07-.14-.08-.24-.01-.1-.02-.22-.02-.36v-1.28c0-.27,.02-.47,.06-.59,.04-.12,.12-.18,.24-.18,.14,0,.22,.06,.26,.18,.04,.12,.06,.31,.06,.57v1.3Z"/><rect class="cls-9" x="93.6" y="10.72" width=".32" height=".31"/><rect class="cls-9" x="93.6" y="11.33" width=".32" height="3.23"/><path class="cls-9" d="M95.46,11.29c-.13,0-.24,.04-.33,.11-.1,.07-.16,.16-.19,.25v-.32h-.32v3.23h.32v-2.62c0-.1,.02-.17,.05-.22,.04-.05,.08-.09,.14-.11,.06-.02,.11-.03,.17-.03,.09,0,.16,.03,.22,.08,.06,.05,.09,.14,.09,.28v2.63h.32v-2.61c0-.23-.04-.4-.13-.5s-.2-.16-.34-.16Z"/><path class="cls-9" d="M97.47,11.52c-.03-.08-.08-.14-.14-.18-.06-.03-.13-.05-.2-.05-.14,0-.26,.04-.35,.14-.09,.1-.15,.23-.19,.39-.04,.16-.06,.35-.06,.56v.82c0,.21,.01,.39,.04,.55s.08,.29,.16,.39c.08,.1,.19,.14,.34,.14,.08,0,.15-.02,.22-.05,.07-.03,.13-.1,.17-.21v.35c0,.12-.03,.22-.08,.29-.05,.07-.13,.11-.22,.11-.12,0-.22-.01-.31-.05-.08-.04-.15-.07-.2-.11l-.12,.25c.07,.05,.16,.1,.28,.14,.11,.04,.23,.05,.35,.05,.13,0,.24-.04,.33-.09,.08-.05,.15-.11,.19-.19,.04-.07,.07-.15,.09-.23s.02-.15,.02-.2v-3.02h-.32v.19Zm0,1.72c0,.22,0,.38-.03,.49-.02,.11-.05,.19-.09,.22-.04,.04-.09,.06-.16,.06-.14,0-.23-.06-.27-.18-.05-.12-.07-.32-.07-.58v-.95c0-.14,0-.27,.02-.38,.01-.11,.04-.19,.09-.25,.05-.06,.12-.09,.21-.09,.13,0,.22,.06,.25,.18,.04,.12,.05,.3,.05,.55v.94Z"/><rect class="cls-9" x="99.46" y="14.2" width=".33" height=".35"/><rect class="cls-9" x="100.61" y="14.2" width=".33" height=".35"/><rect class="cls-9" x="101.75" y="14.2" width=".33" height=".35"/></g></g></g></g><g><g><g><path class="cls-4" d="M124.26,43.62v125.59c0,.57-.05,1.12-.16,1.66-.25,1.29-.79,2.48-1.55,3.5-1.58,2.12-4.1,3.5-6.95,3.5h-50.27c-2.85,0-5.37-1.37-6.95-3.5-.76-1.02-1.29-2.2-1.55-3.5-.11-.54-.16-1.09-.16-1.66V43.62c0-.11,0-.22,0-.32,0-.04,0-.09,0-.13,.23-4.57,4.01-8.2,8.64-8.2h50.27c4.63,0,8.4,3.63,8.64,8.2,0,.04,0,.09,0,.13,0,.11,0,.22,0,.32Z"/><path class="cls-9" d="M122.56,174.36c-1.58,2.12-4.1,3.5-6.95,3.5h-50.27c-2.85,0-5.37-1.37-6.95-3.5H122.56Z"/><path class="cls-12" d="M115.58,34.96c4.78,0,8.65,3.87,8.65,8.65v125.59c0,4.78-3.87,8.65-8.65,8.65h-50.27c-4.78,0-8.65-3.87-8.65-8.65V43.62c0-4.78,3.87-8.65,8.65-8.65h50.27m0-2.18h-50.27c-5.98,0-10.84,4.86-10.84,10.84v125.59c0,5.98,4.86,10.84,10.84,10.84h50.27c5.98,0,10.84-4.86,10.84-10.84V43.62c0-5.98-4.86-10.84-10.84-10.84h0Z"/><path class="cls-11" d="M115.58,35.51c4.47,0,8.11,3.64,8.11,8.11v125.59c0,4.47-3.64,8.11-8.11,8.11h-50.27c-4.47,0-8.11-3.64-8.11-8.11V43.62c0-4.47,3.64-8.11,8.11-8.11h50.27m0-.55h-50.27c-4.78,0-8.65,3.87-8.65,8.65v125.59c0,4.78,3.87,8.65,8.65,8.65h50.27c4.78,0,8.65-3.87,8.65-8.65V43.62c0-4.78-3.87-8.65-8.65-8.65h0Z"/></g><g><rect class="cls-12" x="113.41" y="38.17" width="4.43" height="2.17"/><rect class="cls-12" x="112.57" y="38.6" width=".67" height="1.32"/></g><g><rect class="cls-12" x="66.91" y="39.26" width=".67" height="1.08"/><rect class="cls-12" x="65.68" y="38.9" width=".67" height="1.45"/><rect class="cls-12" x="64.44" y="38.54" width=".67" height="1.81"/><rect class="cls-12" x="63.21" y="38.17" width=".67" height="2.17"/></g><path class="cls-9" d="M102.84,40.36h-24.25c-.6,0-1.09-.49-1.09-1.09h0c0-.6,.49-1.09,1.09-1.09h24.25c.6,0,1.09,.49,1.09,1.09h0c0,.6-.49,1.09-1.09,1.09Z"/><path class="cls-12" d="M101.14,174.5h-20.59c-.08,0-.14-.06-.14-.14s.06-.14,.14-.14h20.59c.08,0,.14,.06,.14,.14s-.06,.14-.14,.14Z"/></g><g><path class="cls-9" d="M117.09,51.03H63.81c-.85,0-1.54-.69-1.54-1.54v-2.91c0-.85,.69-1.54,1.54-1.54h53.28c.85,0,1.54,.69,1.54,1.54v2.91c0,.85-.69,1.54-1.54,1.54Z"/><g><path class="cls-5" d="M115.3,46.72c0,.17-.13,.3-.3,.3s-.3-.13-.3-.3,.13-.3,.3-.3,.3,.13,.3,.3Z"/><path class="cls-5" d="M115.3,48.04c0,.17-.13,.3-.3,.3s-.3-.13-.3-.3,.13-.3,.3-.3,.3,.13,.3,.3Z"/><path class="cls-5" d="M115.3,49.35c0,.17-.13,.3-.3,.3s-.3-.13-.3-.3,.13-.3,.3-.3,.3,.13,.3,.3Z"/></g><circle class="cls-5" cx="66.1" cy="48.04" r="1.02"/></g></g><g><g><path class="cls-12" d="M82.36,58.88c-.07-.17-.19-.31-.34-.4-.15-.09-.37-.14-.63-.14-.36,0-.62,.08-.79,.25-.17,.17-.28,.39-.34,.69-.05,.29-.08,.63-.08,1.02v2.84c0,.46,.03,.85,.09,1.15,.06,.3,.18,.53,.35,.67,.14,.12,.34,.2,.6,.21l.8,1.4,.37-.2-.69-1.24c.16-.04,.29-.1,.39-.18,.17-.15,.28-.37,.34-.67,.06-.3,.09-.69,.09-1.15v-2.84c0-.29-.01-.55-.03-.79-.02-.24-.07-.44-.14-.62Zm-.4,4.25c0,.41-.02,.73-.05,.96-.03,.23-.09,.39-.18,.49-.09,.09-.21,.14-.37,.14s-.29-.05-.38-.14c-.09-.09-.15-.26-.18-.49-.03-.23-.05-.55-.05-.96v-2.89c0-.5,.04-.86,.13-1.09,.09-.23,.26-.34,.51-.34s.4,.11,.47,.34c.07,.23,.11,.59,.11,1.09v2.88Z"/><path class="cls-12" d="M86,64.87s-.01-.07-.01-.11c0-.04,0-.08,0-.13v-.16c0-.57,0-1.04-.02-1.4-.02-.37-.05-.65-.09-.86-.04-.21-.1-.36-.18-.45-.08-.09-.19-.15-.31-.17,.23-.07,.39-.23,.48-.49,.09-.26,.13-.6,.13-1.03,0-.38-.02-.7-.07-.94-.05-.24-.16-.42-.32-.53-.17-.11-.43-.17-.79-.17h-1.13v6.67h.56v-3.29l.6,.04c.2,.01,.34,.05,.43,.11,.08,.06,.13,.17,.14,.33,.01,.16,.02,.39,.02,.7,0,.36,0,.66,0,.9,0,.24,0,.43,0,.58,0,.15,0,.26,.01,.34,0,.08,.01,.14,.02,.18,.01,.04,.02,.08,.04,.11h.56s-.03-.08-.04-.12c-.01-.04-.02-.07-.02-.11Zm-.81-3.53c-.09,.06-.21,.09-.37,.09h-.59v-2.53h.63c.15,0,.27,.03,.35,.08,.08,.05,.14,.16,.16,.32,.03,.16,.04,.41,.04,.74v.05c0,.4-.02,.69-.05,.89-.03,.19-.09,.31-.18,.37Z"/><path class="cls-12" d="M90.88,58.93c-.07-.19-.18-.33-.33-.44-.15-.1-.36-.16-.63-.16s-.48,.05-.64,.15c-.16,.1-.28,.25-.36,.43-.08,.18-.14,.4-.16,.64-.03,.25-.04,.51-.04,.79v2.66c0,.47,.03,.86,.09,1.18,.06,.32,.18,.56,.35,.73,.17,.17,.42,.25,.74,.25s.57-.08,.73-.25c.16-.17,.27-.41,.33-.74,.06-.32,.08-.72,.08-1.18v-.53h-.57v.53c0,.61-.03,1.05-.1,1.31-.07,.26-.23,.39-.48,.39-.17,0-.3-.06-.39-.17-.09-.11-.15-.3-.18-.55-.03-.25-.05-.58-.05-.99v-2.68c0-.5,.04-.88,.13-1.13,.09-.26,.26-.38,.51-.38s.4,.13,.46,.39c.06,.26,.09,.64,.09,1.13v.64h.57v-.58c0-.29,0-.56-.03-.81-.02-.25-.06-.47-.13-.66Z"/><path class="cls-12" d="M94.17,58.88c-.07-.17-.19-.31-.34-.4-.15-.09-.37-.14-.63-.14-.36,0-.62,.08-.79,.25-.17,.17-.28,.39-.34,.69-.05,.29-.08,.63-.08,1.02v2.84c0,.46,.03,.85,.09,1.15,.06,.3,.18,.53,.35,.67,.17,.15,.42,.22,.74,.22s.57-.07,.74-.22c.17-.15,.28-.37,.34-.67,.06-.3,.09-.69,.09-1.15v-2.84c0-.29-.01-.55-.03-.79-.02-.24-.07-.44-.14-.62Zm-.4,4.25c0,.41-.02,.73-.05,.96-.03,.23-.09,.39-.18,.49-.09,.09-.21,.14-.37,.14s-.29-.05-.38-.14c-.09-.09-.15-.26-.18-.49-.03-.23-.05-.55-.05-.96v-2.89c0-.5,.04-.86,.13-1.09,.09-.23,.26-.34,.51-.34s.4,.11,.47,.34c.07,.23,.11,.59,.11,1.09v2.88Z"/><path class="cls-12" d="M97.33,58.66c-.18-.16-.46-.23-.82-.23h-1.03v6.67h1c.32,0,.58-.06,.77-.19,.19-.13,.33-.33,.42-.61,.08-.28,.13-.65,.13-1.11v-2.86c0-.39-.03-.72-.1-1.01-.07-.29-.19-.51-.38-.66Zm-.09,4.47c0,.41-.03,.72-.08,.93-.05,.21-.13,.36-.24,.43-.11,.08-.24,.11-.41,.11h-.47v-5.72h.5c.24,0,.41,.11,.52,.32,.11,.21,.17,.56,.17,1.06v2.86Z"/><polygon class="cls-12" points="100.72 58.86 100.72 58.42 98.95 58.42 98.95 65.1 100.7 65.1 100.7 64.65 99.52 64.65 99.52 61.93 100.64 61.93 100.64 61.47 99.52 61.47 99.52 58.86 100.72 58.86"/></g><g><g><path class="cls-12" d="M108.91,117.91v-3.73h-1.76v3.52h-1.76v1.76h1.97c.85,0,1.55-.69,1.55-1.55Z"/><polygon class="cls-12" points="105.39 110.66 107.15 110.66 107.15 112.42 108.91 112.42 108.91 108.91 107.15 108.91 107.15 107.15 105.39 107.15 105.39 110.66"/><polygon class="cls-12" points="103.63 98.36 103.63 100.12 105.39 100.12 105.39 105.39 107.15 105.39 107.15 107.15 108.91 107.15 108.91 105.39 108.91 103.63 107.15 103.63 107.15 101.88 108.91 101.88 108.91 98.36 105.39 98.36 103.63 98.36"/><path class="cls-12" d="M103.63,105.39h-3.52v-1.76h-1.76v1.76h-1.76v-1.76h-1.76v5.27h-1.76v-1.76h-5.27v1.76h-1.76v1.76h1.76v3.52h1.76v-5.27h1.76v1.76h3.52v1.76h-3.52v1.76h1.76v3.52h1.76v1.76h3.52v-1.76h-1.76v-1.76h3.52v1.76h1.76v1.76h1.76v-1.76h1.76v-5.27h-1.76v-5.27h1.76v-1.76h-1.76Zm-3.52,8.79h-3.52v-1.76h3.52v1.76Zm-3.52-3.52v-3.52h1.76v1.76h1.76v-1.76h1.76v3.52h-5.27Zm7.03,5.27h-1.76v-1.76h1.76v1.76Z"/><rect class="cls-12" x="101.88" y="101.88" width="1.76" height="1.76"/><path class="cls-12" d="M96.6,82.54v12.31h12.31v-10.76c0-.85-.69-1.55-1.55-1.55h-10.76Zm10.55,10.55h-8.79v-8.79h8.79v8.79Z"/><rect class="cls-12" x="100.12" y="86.05" width="5.27" height="5.27"/><rect class="cls-12" x="93.09" y="93.08" width="1.76" height="1.76"/><path class="cls-12" d="M89.57,87.81h1.76v1.76h1.76v1.76h1.76v-3.52h-1.76v-1.76h1.76v-3.52h-8.79v3.52h1.76v3.52h1.76v-1.76Zm0-3.52h1.76v1.76h-1.76v-1.76Z"/><polygon class="cls-12" points="86.05 119.45 91.33 119.45 91.33 117.7 89.57 117.7 89.57 115.94 87.81 115.94 87.81 114.18 86.05 114.18 86.05 119.45"/><path class="cls-12" d="M73.54,119.45h10.76v-12.31h-12.31v10.76c0,.85,.69,1.55,1.55,1.55Zm.21-10.55h8.79v8.79h-8.79v-8.79Z"/><rect class="cls-12" x="80.78" y="96.6" width="3.52" height="1.76"/><polygon class="cls-12" points="89.57 105.39 89.57 103.63 87.81 103.63 87.81 100.12 91.33 100.12 91.33 103.63 93.09 103.63 93.09 101.88 96.6 101.88 96.6 100.12 100.12 100.12 100.12 101.88 101.88 101.88 101.88 100.12 101.88 98.36 100.12 98.36 100.12 96.6 94.84 96.6 94.84 100.12 93.09 100.12 93.09 98.36 93.09 94.84 91.33 94.84 91.33 91.33 89.57 91.33 89.57 94.84 87.81 94.84 87.81 89.57 86.05 89.57 86.05 103.63 80.78 103.63 80.78 105.39 86.05 105.39 86.05 107.15 87.81 107.15 87.81 105.39 89.57 105.39"/><rect class="cls-12" x="75.51" y="110.66" width="5.27" height="5.27"/><polygon class="cls-12" points="71.99 96.6 71.99 100.12 75.51 100.12 75.51 98.36 77.26 98.36 77.26 96.6 71.99 96.6"/><polygon class="cls-12" points="79.02 101.88 84.3 101.88 84.3 100.12 80.78 100.12 80.78 98.36 77.26 98.36 77.26 103.63 75.51 103.63 75.51 103.66 73.7 103.66 73.7 101.9 71.99 101.9 71.99 105.39 79.02 105.39 79.02 101.88"/><path class="cls-12" d="M84.3,82.54h-10.76c-.85,0-1.55,.69-1.55,1.55v10.76h12.31v-12.31Zm-1.76,10.55h-8.79v-8.79h8.79v8.79Z"/><rect class="cls-12" x="75.51" y="86.05" width="5.27" height="5.27"/></g><g><path class="cls-16" d="M113.02,86.58c-.26,0-.48-.21-.48-.48v-6.08c0-.59-.48-1.07-1.07-1.07h-6.19c-.26,0-.48-.21-.48-.48s.21-.48,.48-.48h6.19c1.12,0,2.02,.91,2.02,2.02v6.08c0,.26-.21,.48-.48,.48Z"/><path class="cls-16" d="M67.9,86.58c-.26,0-.48-.21-.48-.48v-6.08c0-1.12,.91-2.02,2.02-2.02h6.19c.26,0,.48,.21,.48,.48s-.21,.48-.48,.48h-6.19c-.59,0-1.07,.48-1.07,1.07v6.08c0,.26-.21,.48-.48,.48Z"/><path class="cls-16" d="M111.47,124.02h-6.19c-.26,0-.48-.21-.48-.48s.21-.48,.48-.48h6.19c.59,0,1.07-.48,1.07-1.07v-6.08c0-.26,.21-.48,.48-.48s.48,.21,.48,.48v6.08c0,1.12-.91,2.02-2.02,2.02Z"/><path class="cls-16" d="M75.63,124.02h-6.19c-1.12,0-2.02-.91-2.02-2.02v-6.08c0-.26,.21-.48,.48-.48s.48,.21,.48,.48v6.08c0,.59,.48,1.07,1.07,1.07h6.19c.26,0,.48,.21,.48,.48s-.21,.48-.48,.48Z"/></g><path class="cls-12" d="M94.12,128.34l-3.11-3.64c-.29-.33-.8-.34-1.09,0l-3.14,3.64c-.14,.16-.34,.25-.54,.25h-23.34v10.56c0,1.84,1.49,3.34,3.34,3.34h48.45c1.84,0,3.34-1.49,3.34-3.34v-10.56h-23.36c-.21,0-.41-.09-.55-.25Z"/><g><path class="cls-4" d="M79.53,135.32l-.34-.34c-.14-.14-.25-.25-.34-.35-.09-.1-.16-.21-.2-.33-.04-.12-.07-.28-.07-.48,0-.28,.02-.49,.06-.63,.04-.14,.1-.24,.19-.3,.09-.05,.2-.08,.33-.08,.14,0,.26,.04,.34,.12,.08,.08,.14,.22,.17,.43,.03,.21,.05,.5,.05,.88v.39h.47v-.35c0-.27,0-.52-.02-.75-.01-.23-.05-.43-.11-.61-.06-.17-.16-.31-.31-.41-.14-.1-.34-.15-.59-.15-.31,0-.55,.07-.7,.2-.16,.13-.26,.32-.31,.55-.05,.23-.08,.5-.08,.8,0,.24,.04,.45,.13,.63,.08,.18,.19,.34,.31,.48,.12,.14,.24,.26,.35,.36l.37,.34c.2,.19,.34,.38,.42,.57,.08,.2,.12,.46,.12,.78,0,.29,0,.53-.03,.71-.02,.18-.07,.31-.14,.4-.07,.08-.2,.13-.37,.13-.24,0-.41-.12-.48-.35-.08-.23-.11-.62-.11-1.15v-.63h-.52v.64c0,.26,.01,.51,.03,.74,.02,.23,.07,.44,.14,.61,.07,.18,.18,.31,.32,.41,.14,.1,.34,.15,.59,.15,.31,0,.55-.07,.71-.2,.16-.14,.26-.33,.32-.57,.05-.24,.08-.52,.08-.84,0-.41-.07-.75-.2-1.04-.13-.28-.32-.54-.55-.77Z"/><path class="cls-4" d="M83.03,132.91c-.06-.17-.17-.31-.31-.41-.14-.1-.34-.15-.59-.15s-.45,.05-.6,.14c-.15,.1-.26,.23-.34,.4-.08,.17-.13,.37-.15,.6-.03,.23-.04,.47-.04,.74v2.48c0,.44,.03,.8,.08,1.1,.06,.3,.16,.53,.32,.68,.16,.15,.39,.23,.69,.23s.53-.08,.68-.23c.15-.16,.26-.38,.31-.69,.05-.3,.08-.67,.08-1.1v-.49h-.53v.5c0,.57-.03,.98-.1,1.22-.06,.24-.21,.37-.44,.37-.16,0-.28-.05-.36-.16-.08-.11-.14-.28-.17-.51-.03-.23-.04-.54-.04-.92v-2.49c0-.46,.04-.82,.12-1.05,.08-.24,.24-.36,.47-.36s.37,.12,.43,.36c.06,.24,.09,.59,.09,1.05v.6h.53v-.54c0-.27,0-.52-.02-.76-.02-.23-.06-.44-.12-.61Z"/><path class="cls-4" d="M84.72,132.44l-1,6.22h.5l.19-1.28h1.24l.2,1.28h.51l-1.11-6.22h-.54Zm-.25,4.55l.53-3.54h0l.57,3.54h-1.11Z"/><polygon class="cls-4" points="88.91 135.11 88.96 137.25 87.44 132.44 87.07 132.44 87.07 138.66 87.56 138.66 87.56 135.65 87.53 133.97 88.96 138.66 89.37 138.66 89.37 132.44 88.91 132.44 88.91 135.11"/><polygon class="cls-4" points="93.83 135.13 92.69 135.13 92.69 132.44 92.17 132.44 92.17 138.66 92.69 138.66 92.69 135.53 93.83 135.53 93.83 138.66 94.36 138.66 94.36 132.44 93.83 132.44 93.83 135.13"/><polygon class="cls-4" points="95.53 138.66 97.16 138.66 97.16 138.24 96.06 138.24 96.06 135.71 97.11 135.71 97.11 135.28 96.06 135.28 96.06 132.85 97.17 132.85 97.17 132.44 95.53 132.44 95.53 138.66"/><path class="cls-4" d="M100.23,138.45s-.01-.07-.01-.1c0-.04,0-.07,0-.12v-.15c0-.53,0-.97-.02-1.31-.02-.34-.04-.61-.08-.8-.04-.19-.1-.33-.17-.42-.08-.09-.17-.14-.29-.16,.22-.06,.37-.21,.45-.46,.08-.24,.12-.56,.12-.96,0-.36-.02-.65-.07-.88-.05-.23-.15-.39-.3-.5-.16-.11-.4-.16-.73-.16h-1.06v6.22h.53v-3.07l.56,.04c.19,.01,.32,.05,.4,.1,.08,.06,.12,.16,.13,.31,.01,.15,.02,.36,.02,.65,0,.33,0,.61,0,.84,0,.22,0,.4,0,.54,0,.14,0,.24,.01,.32,0,.08,.01,.13,.02,.17,0,.04,.02,.07,.04,.1h.52s-.03-.08-.04-.11c0-.03-.02-.07-.02-.1Zm-.75-3.29c-.08,.05-.2,.08-.35,.08h-.55v-2.36h.59c.14,0,.25,.03,.33,.08,.08,.05,.13,.15,.15,.3,.03,.15,.04,.38,.04,.69v.05c0,.37-.02,.65-.05,.82-.03,.18-.09,.29-.17,.35Z"/><polygon class="cls-4" points="102.88 132.85 102.88 132.44 101.23 132.44 101.23 138.66 102.87 138.66 102.87 138.24 101.76 138.24 101.76 135.71 102.81 135.71 102.81 135.28 101.76 135.28 101.76 132.85 102.88 132.85"/></g><g><path class="cls-11" d="M108.91,117.91v-3.73h-1.76v3.52h-1.76v1.76h1.97c.85,0,1.55-.69,1.55-1.55Z"/><polygon class="cls-11" points="105.39 110.66 107.15 110.66 107.15 112.42 108.91 112.42 108.91 108.91 107.15 108.91 107.15 107.15 105.39 107.15 105.39 110.66"/><polygon class="cls-11" points="107.15 101.88 107.15 103.63 108.91 103.63 108.91 107.15 107.15 107.15 107.15 105.39 105.39 105.39 105.39 101.03 108.91 101.03 108.91 101.88 107.15 101.88"/><path class="cls-11" d="M105.39,107.15v-1.76h-5.27v-1.76h-1.76v1.76h-1.76v-1.76h-1.76v5.27h-1.76v-1.76h-5.27v1.76h-1.76v1.76h1.76v3.52h1.76v-5.27h1.76v1.76h3.52v1.76h-3.52v1.76h1.76v3.52h1.76v1.76h3.52v-1.76h-1.76v-1.76h3.52v1.76h1.76v1.76h1.76v-1.76h1.76v-5.27h-1.76v-5.27h1.76Zm-5.27,7.03h-3.52v-1.76h3.52v1.76Zm-3.52-3.52v-3.52h1.76v1.76h1.76v-1.76h1.76v3.52h-5.27Zm7.03,5.27h-1.76v-1.76h1.76v1.76Z"/><rect class="cls-11" x="101.88" y="101.88" width="1.76" height="1.76"/><polygon class="cls-11" points="86.05 119.45 91.33 119.45 91.33 117.7 89.57 117.7 89.57 115.94 87.81 115.94 87.81 114.18 86.05 114.18 86.05 119.45"/><path class="cls-11" d="M71.99,107.15v10.76c0,.85,.69,1.55,1.55,1.55h10.76v-12.31h-12.31Zm10.55,10.55h-8.79v-8.79h8.79v8.79Z"/><polygon class="cls-11" points="87.81 103.63 89.57 103.63 89.57 105.39 87.81 105.39 87.81 107.15 86.05 107.15 86.05 105.39 80.78 105.39 80.78 103.63 86.05 103.63 86.05 101.03 87.81 101.03 87.81 103.63"/><polygon class="cls-11" points="91.33 101.03 96.6 101.03 96.6 101.88 93.09 101.88 93.09 103.63 91.33 103.63 91.33 101.03"/><rect class="cls-11" x="100.12" y="101.03" width="1.76" height=".84"/><rect class="cls-11" x="75.51" y="110.66" width="5.27" height="5.27"/><polygon class="cls-11" points="84.3 101.03 84.3 101.88 79.02 101.88 79.02 105.39 71.99 105.39 71.99 101.9 73.7 101.9 73.7 103.66 75.51 103.66 75.51 103.63 77.26 103.63 77.26 101.03 84.3 101.03"/></g><rect class="cls-4" x="70.83" y="101.03" width="40" height=".89"/><rect class="cls-16" x="67.9" y="100.89" width="45.12" height=".29"/><path class="cls-12" d="M114.69,73.76c1.68,0,3.05,1.37,3.05,3.05v51.5H63.19v-51.5c0-1.68,1.37-3.05,3.05-3.05h48.45m0-.29h-48.45c-1.84,0-3.34,1.49-3.34,3.34v51.79h55.13v-51.79c0-1.84-1.49-3.34-3.34-3.34h0Z"/></g><g><rect class="cls-9" x="69.59" y="157.37" width="41.75" height="7.15" rx="2.19" ry="2.19"/><path class="cls-12" d="M99.22,157.37v7.15h-27.44c-1.21,0-2.19-.98-2.19-2.19v-2.77c0-1.21,.98-2.19,2.19-2.19h27.44Z"/><g><path class="cls-12" d="M92.82,152.27h.92c-.12,.3-.22,.6-.3,.88-.05,.17-.09,.37-.14,.59-.05,.22-.09,.46-.13,.72-.04,.26-.07,.54-.09,.83h.28c.02-.28,.05-.55,.08-.81,.04-.26,.08-.5,.13-.73,.05-.23,.09-.43,.14-.62,.07-.28,.13-.49,.19-.65,.05-.16,.08-.23,.08-.22v-.2h-1.16v.21Z"/><path class="cls-12" d="M95.32,153.35c-.08-.06-.19-.09-.34-.09-.05,0-.1,.02-.15,.04-.05,.03-.09,.07-.13,.12v-.44c0-.2,0-.35,.02-.45,.01-.11,.04-.18,.08-.22,.04-.04,.1-.06,.18-.06,.07,0,.12,.02,.16,.06,.03,.04,.05,.11,.06,.21,0,.1,.01,.24,.01,.42v.06h.28v-.06c0-.21-.01-.38-.04-.51-.02-.14-.07-.24-.14-.3-.07-.07-.18-.1-.32-.1-.16,0-.27,.03-.35,.1-.08,.07-.13,.17-.16,.31-.03,.14-.04,.32-.04,.54v1.39c0,.14,0,.26,.02,.38,.01,.12,.04,.22,.07,.31,.04,.09,.09,.16,.17,.21,.08,.05,.18,.07,.3,.07,.15,0,.26-.03,.34-.1,.08-.07,.14-.16,.17-.29,.03-.13,.05-.28,.05-.46v-.21c0-.25-.02-.44-.05-.59-.03-.15-.09-.25-.17-.32Zm-.06,1.12c0,.17,0,.3-.02,.39-.02,.09-.04,.15-.08,.18-.04,.03-.1,.05-.17,.05-.09,0-.16-.03-.2-.08-.04-.05-.07-.13-.08-.24-.01-.11-.02-.25-.02-.42v-.77s.03-.01,.06-.03c.03-.02,.06-.03,.1-.04,.04-.01,.09-.02,.15-.02,.07,0,.13,.02,.16,.07,.04,.05,.06,.13,.08,.25,.01,.12,.02,.27,.02,.47v.19Z"/><path class="cls-12" d="M99.18,153.42c-.03-.11-.08-.19-.15-.23-.07-.04-.18-.07-.31-.07s-.24,.02-.31,.07c-.07,.04-.12,.12-.15,.23-.03,.11-.04,.27-.04,.47v.65c0,.21,.01,.37,.04,.48,.03,.11,.08,.19,.15,.24,.07,.05,.18,.07,.31,.07s.24-.02,.31-.07c.07-.05,.12-.13,.15-.24,.03-.11,.04-.28,.04-.48v-.65c0-.2-.01-.36-.04-.47Zm-.21,1.25c0,.16-.02,.26-.05,.32-.03,.06-.1,.08-.2,.08s-.16-.03-.2-.08c-.04-.06-.05-.16-.05-.32v-.92c0-.15,.02-.25,.05-.31,.04-.05,.1-.08,.2-.08s.16,.03,.2,.08c.04,.05,.05,.15,.05,.31v.92Z"/><path class="cls-12" d="M96.95,153.92c.03-.11,.04-.28,.04-.48v-.65c0-.2-.01-.36-.04-.47-.03-.11-.08-.19-.15-.23-.07-.04-.18-.07-.31-.07s-.24,.02-.31,.07c-.07,.04-.12,.12-.15,.23-.03,.11-.04,.27-.04,.47v.65c0,.21,.01,.37,.04,.48,.03,.11,.08,.19,.15,.24,.07,.05,.18,.07,.31,.07s.24-.02,.31-.07c.07-.05,.12-.13,.15-.24Zm-.21-.34c0,.16-.02,.26-.05,.32s-.1,.08-.2,.08-.16-.03-.2-.08c-.04-.06-.05-.16-.05-.32v-.92c0-.15,.02-.25,.05-.31,.04-.05,.1-.08,.2-.08s.16,.03,.2,.08c.03,.05,.05,.15,.05,.31v.92Z"/><polygon class="cls-12" points="98.15 152.06 96.81 155.29 97.08 155.29 98.41 152.06 98.15 152.06"/></g><g><polygon class="cls-12" points="71.99 151.5 71.67 151.5 71.67 155.28 72.66 155.28 72.66 155.03 71.99 155.03 71.99 151.5"/><path class="cls-12" d="M74.14,152.33c-.04-.1-.1-.17-.19-.23-.08-.05-.2-.08-.34-.08-.19,0-.33,.05-.42,.14-.09,.09-.15,.22-.18,.39-.03,.16-.04,.35-.04,.55v1.08c0,.17,0,.32,.02,.46,.01,.14,.04,.26,.08,.36,.04,.1,.11,.18,.19,.24,.09,.06,.2,.08,.35,.08s.27-.03,.35-.09c.08-.06,.15-.14,.19-.24,.04-.1,.06-.22,.07-.36,.01-.14,.02-.29,.02-.46v-1.08c0-.15,0-.29-.02-.42-.01-.13-.04-.24-.08-.34Zm-.23,1.96c0,.15,0,.28-.02,.39-.01,.11-.04,.2-.09,.26-.04,.06-.11,.09-.2,.09-.09,0-.16-.03-.21-.09-.05-.06-.08-.15-.09-.26-.01-.11-.02-.24-.02-.39v-1.27c0-.14,0-.27,.02-.37,.01-.11,.04-.19,.09-.25,.05-.06,.12-.09,.21-.09,.09,0,.16,.03,.2,.09,.04,.06,.07,.15,.08,.25,.01,.11,.02,.23,.02,.37v1.27Z"/><path class="cls-12" d="M75.97,152.32c-.04-.1-.09-.17-.18-.22-.08-.05-.2-.08-.35-.08s-.27,.03-.35,.08c-.08,.06-.14,.13-.18,.22-.04,.09-.06,.2-.07,.32,0,.12-.01,.25-.01,.37v.09h.32v-.08c0-.18,0-.32,.02-.42,.01-.11,.04-.18,.08-.23,.04-.05,.11-.07,.2-.07s.16,.02,.2,.07,.06,.13,.07,.23c0,.1,.01,.24,.01,.4v.22c-.13,.06-.25,.11-.37,.16-.11,.05-.21,.11-.3,.17-.09,.06-.15,.13-.2,.21-.05,.08-.07,.18-.07,.29v.41c0,.27,.04,.47,.13,.62,.09,.14,.21,.22,.39,.22,.09,0,.16-.02,.22-.05,.06-.03,.11-.07,.14-.11,.03-.04,.05-.08,.06-.1v.24h.32v-2.1c0-.19,0-.36,0-.5,0-.14-.03-.27-.06-.37Zm-.25,2.51s-.07,.09-.14,.14c-.07,.05-.14,.07-.23,.07-.1,0-.17-.05-.2-.14-.03-.09-.05-.24-.05-.46v-.26c0-.1,0-.19,.02-.25,.02-.07,.04-.12,.09-.17,.04-.05,.1-.09,.19-.13,.08-.04,.19-.09,.32-.15v1.35Z"/><path class="cls-12" d="M77.54,152.29c-.03-.07-.07-.13-.13-.19-.06-.05-.13-.08-.21-.08-.17,0-.29,.05-.38,.14-.09,.1-.14,.23-.17,.39-.03,.17-.04,.35-.04,.56v1.13c0,.2,.01,.38,.04,.54,.02,.16,.07,.29,.15,.38,.07,.09,.18,.14,.33,.14,.08,0,.16-.02,.24-.06,.08-.04,.14-.11,.19-.21v.25h.32v-3.84h-.32v.84Zm0,2.06c0,.21-.01,.36-.04,.46-.03,.1-.07,.16-.12,.19-.05,.03-.11,.04-.18,.04-.08,0-.15-.03-.19-.09-.04-.06-.07-.14-.08-.24-.01-.1-.02-.22-.02-.36v-1.28c0-.27,.02-.47,.06-.59,.04-.12,.12-.18,.24-.18,.14,0,.22,.06,.26,.18,.04,.12,.06,.31,.06,.57v1.3Z"/><rect class="cls-12" x="78.52" y="151.45" width=".32" height=".31"/><rect class="cls-12" x="78.52" y="152.06" width=".32" height="3.23"/><path class="cls-12" d="M80.37,152.01c-.13,0-.24,.04-.33,.11-.1,.07-.16,.16-.19,.25v-.32h-.32v3.23h.32v-2.62c0-.1,.02-.17,.05-.22,.04-.05,.08-.09,.14-.11,.06-.02,.11-.03,.17-.03,.09,0,.16,.03,.22,.08,.06,.05,.09,.14,.09,.28v2.63h.32v-2.61c0-.23-.04-.4-.13-.5s-.2-.16-.34-.16Z"/><path class="cls-12" d="M82.38,152.24c-.03-.08-.08-.14-.14-.18-.06-.03-.13-.05-.2-.05-.14,0-.26,.04-.35,.14-.09,.1-.15,.23-.19,.39-.04,.16-.06,.35-.06,.56v.82c0,.21,.01,.39,.04,.55s.08,.29,.16,.39c.08,.1,.19,.14,.34,.14,.08,0,.15-.02,.22-.05,.07-.03,.13-.1,.17-.21v.35c0,.12-.03,.22-.08,.29-.05,.07-.13,.11-.22,.11-.12,0-.22-.01-.31-.05-.08-.04-.15-.07-.2-.11l-.12,.25c.07,.05,.16,.1,.28,.14,.11,.04,.23,.05,.35,.05,.13,0,.24-.04,.33-.09,.08-.05,.15-.11,.19-.19,.04-.07,.07-.15,.09-.23,.02-.08,.02-.15,.02-.2v-3.02h-.32v.19Zm0,1.72c0,.22,0,.38-.03,.49-.02,.11-.05,.19-.09,.22-.04,.04-.09,.06-.16,.06-.14,0-.23-.06-.27-.18-.05-.12-.07-.32-.07-.58v-.95c0-.14,0-.27,.02-.38,.01-.11,.04-.19,.09-.25,.05-.06,.12-.09,.21-.09,.13,0,.22,.06,.25,.18,.04,.12,.05,.3,.05,.55v.94Z"/><rect class="cls-12" x="84.38" y="154.93" width=".33" height=".35"/><rect class="cls-12" x="85.52" y="154.93" width=".33" height=".35"/><rect class="cls-12" x="86.67" y="154.93" width=".33" height=".35"/></g></g></g><g><rect class="cls-11" x="28.38" y="179.9" width="147.28" height=".29"/><path class="cls-12" d="M155.07,60.72c-.99,0-1.8,.8-1.8,1.8v13.63l1.67-2.46h12.39c.99,0,1.8-.8,1.8-1.8v-9.37c0-.99-.8-1.8-1.8-1.8h-12.27Z"/><polygon class="cls-4" points="160.03 70.48 157.08 67.76 158.04 66.72 160 68.52 164.33 64.22 165.32 65.22 160.03 70.48"/></g></g><g><path class="cls-15" d="M133.05,171.27l-.52,2.11s1.39,1.67,4.65,1.74v-4.12l-4.13,.27Z"/><g><path class="cls-16" d="M131.38,179.58c-.05,.38,.25,.71,.64,.72,1.07,.02,3.64,.12,8.7,.49,4.42,.32,5.99-.19,6.55-.59,.21-.15,.29-.43,.18-.67,0,0,.16-.35,.16-.78,0-.38-.12-.8-.59-1.09-.44-.27-1.35-.69-2.36-1.21-.27-.14-.54-.28-.81-.44-.85-.47-1.68-1.01-2.31-1.58-1.49-1.38-1.46-1.6-2.23-1.58,0,0-.55-.55-.89-1.23-.13-.26-.42-.39-.71-.34-.62,.12-1.65,.41-2.29,.98-.13,.12-.21,.29-.21,.46l-.04,1.14-.98,.37s-1.48-1.85-2.01-1.63c-.53,.22-.22,1.29-.22,1.29,0,0-.24,.59-.39,1.43-.16,.92-.2,2.15,.29,3.27,0,0-.41,.24-.5,.97Z"/><path class="cls-9" d="M131.38,179.58c-.05,.38,.25,.71,.64,.72,1.07,.02,3.64,.12,8.7,.49,4.42,.32,5.99-.19,6.55-.59,.21-.15,.29-.43,.18-.67-3.25,.63-7.15-.73-10.57-.61-3.7,.12-4.99-.3-4.99-.3,0,0-.41,.24-.5,.97Z"/><path class="cls-9" d="M135.89,179.08c-.07,0-.13-.04-.14-.11-.35-1.29-.92-2.41-1.7-3.31-1.05-1.21-2.12-1.62-2.13-1.62-.08-.03-.12-.11-.09-.19,.03-.08,.11-.12,.19-.09,.05,.02,1.15,.43,2.25,1.7,.81,.94,1.41,2.09,1.76,3.43,.02,.08-.03,.16-.11,.18-.01,0-.03,0-.04,0Z"/><path class="cls-9" d="M131.97,173.9s1.1,.4,2.19,1.66h0s.66-.5,1.7-.95c1.01-.44,2.16-.41,3.14,.09,.59,.3,1.34,.72,2.18,1.27,1.91,1.24,3.06,1.22,3.47,.48h0c.07-.13,.02-.28-.11-.35l-.29-.15c-.07-.04-.15-.04-.23,0-.05,.02-.11,.05-.19,.06-.41,.1-1.24,.09-2.44-.93-.74-.64-1.36-1.1-1.88-1.43-1.09-.7-2.47-.78-3.62-.19-.23,.12-.47,.25-.72,.42l-.98,.37s-1.48-1.85-2.01-1.63c-.53,.22-.22,1.29-.22,1.29Z"/><path class="cls-9" d="M137.74,179.08s-.05,0-.08-.02c-.07-.04-.09-.13-.05-.21,.02-.03,1.67-2.63,5.36-1.64,3.47,.93,4.22,.55,4.23,.55,.07-.04,.16-.02,.21,.05,.04,.07,.02,.16-.05,.21-.08,.05-.87,.45-4.46-.51-3.48-.93-5.02,1.48-5.03,1.51-.03,.05-.08,.07-.13,.07Z"/><path class="cls-12" d="M142.63,175.81c-.09,0-.18-.05-.22-.14-.06-.12,0-.27,.12-.33,.05-.03,.06-.05,.06-.07,0,0,0,.01,0,.01l.5-.02c0,.13-.06,.39-.35,.52-.03,.02-.07,.02-.11,.02Z"/><path class="cls-12" d="M142.08,175.4c-.09,0-.18-.05-.22-.14-.06-.12,0-.27,.12-.33,.05-.03,.06-.05,.06-.07,0,0,0,.01,0,.01l.5-.02c0,.13-.06,.39-.35,.52-.03,.02-.07,.02-.11,.02Z"/><path class="cls-12" d="M141.54,174.99c-.09,0-.18-.05-.22-.14-.06-.12,0-.27,.12-.33,.05-.03,.06-.05,.06-.07,0,0,0,.01,0,.01l.5-.02c0,.13-.06,.39-.35,.52-.03,.02-.07,.02-.11,.02Z"/><path class="cls-12" d="M140.99,174.58c-.09,0-.18-.05-.22-.14-.06-.12,0-.27,.12-.33,.05-.02,.06-.05,.06-.05,0-.14,.1-.25,.24-.26,.14,0,.25,.1,.26,.24,0,.13-.06,.39-.35,.52-.03,.02-.07,.02-.11,.02Z"/><path class="cls-9" d="M138.68,173.31c-.08,0-.14-.06-.15-.14,0-.08,.05-.15,.14-.16,.4-.03,.49-.21,.49-.21,.03-.08,.11-.12,.19-.09,.08,.03,.12,.11,.09,.19-.01,.04-.15,.36-.75,.41h-.01Z"/></g><path class="cls-11" d="M136.42,140.65v4.84l-.11,.11c-.31,.31-.46,.74-.41,1.18l.07,.57s-2.04,6.16-1.41,15.97l-1.76,7.89,3.97,1.03,.19-.99s2.36,1.92,6.44,1.39l.91-5.53s4.76-14.76,8.12-21.87c0,0,4.07-3.99-.06-11.15l-6.37-11.05s1.23-16.8,0-21.69c0,0-3.89-.77-7.02-.12l-2.57,39.42Z"/><path class="cls-16" d="M155.75,93.73l-.24,2.11s-.09,4.73-5.03,3.38h0s.11,.38,.28,1.02c.93,3.63,3.75,16.59,1.62,33.86l-1.31-2.26h0l-5.07-8.79s.67-11.99,.24-19.14h0c-.04-.73-.1-1.41-.17-2.02h0c0-.09-.02-.17-.03-.25-.01-.1-.02-.19-.04-.29,0,0-3.29-.68-7.02-.12,0,0-1.85,27.16-1.15,39.42h-4.04v2.3s-3.83,.28-6.89-.7l-.94-26.12c-.13-3.57,.08-7.14,.61-10.68l.62-4.1s-7.44,1.52-7.17-6.15c0,0-1.35-15.4,2.77-21.81,.27-.43,.69-.74,1.17-.9l6.4-2.16,.34-.52c.29-.44,.77-.73,1.3-.76l6.74-.49c.6-.04,1.18,.23,1.52,.73l.47,.68,6.84,1.58c.69,.16,1.27,.64,1.56,1.29,1.13,2.57,3.97,9.66,5.04,18.41l.62,.43c.66,.46,1.02,1.24,.93,2.04Z"/><path class="cls-12" d="M146,101.35c-.39-.05-.82-.09-1.26-.12-2.59-.18-5.76,0-5.76,0l.25-4.41,1.97-.92c.21-.1,.34-.3,.34-.53v-.43l2.43-1.43c.23-.14,.36-.4,.34-.66-.21-2.05-1.45-3.84-2.07-4.61-.19-.24-.52-.32-.81-.21l-2.53,1.06,.1-3.57c.05-1.83-.39-3.63-1.29-5.23l-5.45-9.7,6.85-.63,3.11,8.64c.34,.94,.63,1.9,.87,2.87,.25,.99,.44,1.99,.58,3l2.31,16.88Z"/><g><path class="cls-11" d="M144.56,66.28s1.54,1.38,.85,2.64c0,0,0-.38-.14-.54,0,0,.04,.86-.66,1.18,0,0,.38-.94-.43-1.5,0,0-.36,.56-.99,.34,0,0,.1,.21,.49,.28,0,0-.77,.32-1.52-.23,0,0-.89,.55-2.04-.14l-8.06-.82c-.44-2.06-1.95-12.07,4.98-14.48,0,0,9.27,4,8.48,8.13-.79,4.13-.96,5.14-.96,5.14Z"/><g><g><path class="cls-15" d="M139.64,71.37c-.5,2.86-6.28,1.13-6.28,1.13l-1.07-1.91,.73-5.99,6.12,3.07v2.3l.5,1.4Z"/><path class="cls-15" d="M137.5,68.86h0c-2.75-.28-4.76-2.74-4.48-5.49l.62-6.09c.28-2.75,2.74-4.76,5.49-4.48h0c2.75,.28,4.76,2.74,4.48,5.49l-.62,6.09c-.28,2.75-2.74,4.76-5.49,4.48Z"/><path class="cls-8" d="M139.13,68.76v.58c-.52-.08-1.1-.24-1.62-.57,.44,.15,1.05,.12,1.62,0Z"/></g><g><g><path class="cls-11" d="M141.8,60.78c-.03,.25-.25,.43-.49,.4-.25-.03-.43-.25-.4-.49,.03-.25,.25-.43,.49-.4,.25,.03,.43,.25,.4,.49Z"/><path class="cls-11" d="M142.35,60.16c-.06-.06-.13-.11-.2-.15-.03-.02-.07-.04-.11-.07-.04-.02-.07-.04-.11-.06-.15-.07-.31-.11-.48-.13-.04,0-.08,0-.12,0h-.06s-.04,0-.06,0c-.04,0-.08,0-.12,.01-.04,0-.08,.02-.12,.03h-.06l-.06,.03-.12,.04c-.08,.03-.15,.07-.23,.1,.07-.04,.14-.09,.22-.12l.12-.05,.06-.02,.06-.02s.08-.02,.12-.03c.04,0,.08-.01,.13-.02,.02,0,.04,0,.06,0h.06s.09,0,.13,0c.17,.01,.34,.06,.49,.14,.15,.08,.29,.18,.4,.31Z"/></g><g><path class="cls-11" d="M137.09,60.31c-.03,.25-.25,.43-.49,.4s-.43-.25-.4-.49,.25-.43,.49-.4c.25,.03,.43,.25,.4,.49Z"/><path class="cls-11" d="M137.64,59.68c-.06-.06-.13-.11-.2-.15-.03-.02-.07-.04-.11-.07-.04-.02-.07-.04-.11-.06-.15-.07-.31-.11-.48-.13-.04,0-.08,0-.12,0h-.06s-.04,0-.06,0c-.04,0-.08,0-.12,.01-.04,0-.08,.02-.12,.03h-.06l-.06,.03-.12,.04c-.08,.03-.15,.07-.23,.1,.07-.04,.14-.09,.22-.12l.12-.05,.06-.02,.06-.02s.08-.02,.12-.03c.04,0,.08-.01,.13-.02,.02,0,.04,0,.06,0h.06s.09,0,.13,0c.17,.01,.34,.06,.49,.14,.15,.08,.29,.18,.4,.31Z"/></g><path class="cls-11" d="M139.41,62.13c.02,.19,.03,.39,.04,.58,.01,.19,.02,.39,.03,.58,0,.1,0,.2-.01,.3-.02,.1-.05,.2-.11,.28-.05,.08-.13,.16-.22,.2-.09,.04-.18,.07-.27,.11,.09-.05,.17-.09,.26-.13,.08-.04,.15-.12,.19-.2,.05-.08,.08-.17,.09-.27,.02-.09,.01-.19,0-.29,0-.19-.01-.39-.02-.58,0-.2,0-.39,0-.59Z"/><path class="cls-6" d="M139.19,65.13c-.11,.18-.27,.31-.47,.38-.05,.02-.1,.03-.16,.04-.05,0-.11,.01-.17,0-.11,0-.23-.03-.34-.08-.21-.1-.38-.27-.47-.46-.04-.09-.07-.19-.09-.3-.01-.1-.01-.2,.02-.31,.06,.05,.12,.1,.18,.15,.09,.07,.16,.13,.24,.19,.12,.09,.23,.16,.34,.21,.05,.03,.11,.04,.17,.06,.03,0,.06,.02,.1,.02,.03,0,.07,.02,.11,.02,.05,0,.09,.01,.14,.02,.11,.01,.24,.02,.39,.04Z"/><path class="cls-4" d="M138.81,65.09s-.09,.05-.13,.07c-.16,.07-.37,.06-.54-.02-.18-.08-.31-.22-.37-.38-.03-.06-.04-.13-.05-.2,.09,.07,.16,.13,.24,.19,.12,.09,.23,.16,.34,.21,.05,.03,.11,.04,.17,.06,.03,0,.06,.02,.1,.02,.03,0,.07,.02,.11,.02,.05,0,.09,.01,.14,.02Z"/><path class="cls-11" d="M142.48,58.91c-.2-.04-.35-.07-.5-.1-.15-.02-.28-.04-.41-.05-.02,0-.03,0-.05,0h-.05s-.03,0-.05,0c-.02,0-.03,0-.05,0-.03,0-.07,0-.11,0-.04,0-.07,0-.11,0-.02,0-.04,0-.06,0-.02,0-.04,0-.06,0-.04,0-.08,0-.12,0-.09,0-.17,0-.28-.01,.02-.05,.05-.09,.08-.13,.03-.04,.06-.08,.09-.11,.04-.03,.07-.06,.11-.09,.02-.02,.04-.03,.06-.04,.02-.01,.04-.02,.06-.03,.04-.02,.09-.04,.13-.06,.05-.01,.1-.03,.14-.04,.02,0,.05-.01,.07-.01h.08c.05,0,.1-.01,.15,0,.2,.01,.4,.09,.55,.22,.02,.01,.04,.03,.06,.05,.02,.02,.04,.03,.05,.05,.03,.04,.06,.07,.09,.12,.05,.08,.1,.17,.11,.28Z"/><path class="cls-11" d="M137.77,58.43c-.2-.04-.35-.07-.5-.1-.15-.02-.28-.04-.41-.05-.02,0-.03,0-.05,0h-.05s-.03,0-.05,0c-.02,0-.03,0-.05,0-.03,0-.07,0-.11,0-.04,0-.07,0-.11,0-.02,0-.04,0-.06,0-.02,0-.04,0-.06,0-.04,0-.08,0-.12,0-.09,0-.17,0-.28-.01,.02-.05,.05-.09,.08-.13,.03-.04,.06-.08,.09-.11,.04-.03,.07-.06,.11-.09,.02-.02,.04-.03,.06-.04,.02-.01,.04-.02,.06-.03,.04-.02,.09-.04,.13-.06,.05-.01,.1-.03,.14-.04,.02,0,.05-.01,.07-.01h.08c.05,0,.1-.01,.15,0,.2,.01,.4,.09,.55,.22,.02,.01,.04,.03,.06,.05,.02,.02,.04,.03,.05,.05,.03,.04,.06,.07,.09,.12,.05,.08,.1,.17,.11,.28Z"/></g></g><path class="cls-11" d="M137.21,53.64s1.32-.34,3.04,1.39c1.72,1.72,2.75,4.55,4.7,5.89,0,0,.14,4.87-2.2,6,0,0,1.69,.49,2.37-1.76,0,0,2.75-1.95-.83-10.14-.57-1.85-5.45-6.4-11.37-2.76,0,0-2.84,1.18-4.14,6.19,0,0-3.04,6.75,2.44,8.78,0,0,1.47,1.77,2.95,.75,0,0-.93-.4-1.22-.87,0,0,1.76,1.06,2.87,.37,0,0-2.18-.57-2.69-1.7,0,0,.9,1.11,1.96,.14,0,0-4-.67-2.8-6.06,0,0,2.75,1.66,3.46-1.69,.69-3.24,1.45-4.54,1.45-4.54Z"/><path class="cls-11" d="M145.13,65.15c.1-.06,.19-.13,.28-.2,.09-.07,.17-.15,.25-.23,.15-.17,.29-.35,.41-.54,.11-.19,.21-.4,.28-.61,.07-.21,.12-.43,.16-.66,.04-.22,.06-.45,.06-.68,0-.06,0-.11,0-.17v-.17c-.01-.11-.02-.23-.03-.34-.06-.46-.18-.9-.34-1.33-.33-.86-.68-1.71-1-2.58-.32-.87-.62-1.74-.91-2.61h.02c.2,.41,.38,.84,.55,1.26,.18,.43,.34,.86,.51,1.29,.16,.43,.32,.87,.47,1.3,.08,.22,.15,.43,.23,.65,.04,.11,.08,.22,.11,.33l.1,.33c.13,.44,.23,.9,.3,1.35,.07,.46,.1,.92,.05,1.39-.06,.46-.21,.92-.47,1.32-.26,.39-.61,.73-1.04,.92v-.02Z"/><path class="cls-11" d="M137.22,53.64c-.29,.77-.52,1.56-.74,2.35-.05,.2-.11,.39-.17,.59l-.08,.3c-.02,.1-.05,.2-.07,.3-.09,.4-.16,.81-.21,1.22-.03,.2-.05,.41-.1,.62-.05,.2-.11,.41-.2,.6-.09,.19-.22,.37-.38,.52-.08,.07-.17,.14-.27,.19-.1,.05-.2,.09-.31,.12-.21,.06-.43,.06-.64,.04-.21-.02-.42-.07-.62-.12-.4-.12-.78-.29-1.14-.49v-.02c.39,.14,.78,.28,1.18,.37,.2,.04,.4,.08,.6,.09,.2,.01,.4,0,.58-.05,.19-.05,.36-.14,.51-.27,.15-.13,.26-.29,.36-.46,.09-.18,.16-.37,.22-.56,.03-.1,.05-.2,.08-.3,.02-.1,.04-.2,.06-.3l.22-1.22c.02-.1,.04-.2,.05-.31l.06-.3c.04-.2,.08-.41,.13-.61,.05-.2,.1-.4,.17-.6,.06-.2,.13-.39,.2-.59,.14-.39,.3-.77,.5-1.13h.02Z"/><path class="cls-10" d="M143.48,59.47c.12,.13,.23,.26,.35,.38,.12,.13,.23,.25,.36,.37,.12,.12,.25,.24,.37,.35,.06,.06,.13,.11,.2,.17l.1,.08s.07,.05,.1,.08c-.07-.04-.15-.09-.22-.14-.07-.05-.14-.1-.21-.16-.14-.11-.26-.22-.39-.35-.12-.12-.24-.25-.35-.38-.11-.13-.22-.27-.31-.41Z"/><path class="cls-10" d="M137.22,53.62c.34-.05,.69,0,1.02,.07,.33,.08,.66,.2,.96,.36,.15,.07,.3,.17,.45,.25,.07,.05,.14,.1,.21,.14l.11,.07,.1,.08c.28,.2,.54,.42,.79,.65,.51,.46,.96,.98,1.4,1.5,.44,.52,.88,1.04,1.35,1.53h0c-.5-.46-.95-.98-1.39-1.5-.22-.26-.44-.52-.67-.77-.23-.25-.46-.5-.7-.74-.25-.24-.5-.46-.78-.66l-.1-.07-.11-.07c-.07-.05-.14-.09-.22-.14-.15-.08-.3-.17-.45-.24-.31-.15-.62-.27-.95-.36-.33-.08-.67-.14-1.01-.11h0Z"/><path class="cls-10" d="M135.1,65.93c-.31-.05-.61-.16-.89-.3-.28-.14-.55-.31-.78-.52-.47-.42-.82-.96-1.06-1.54-.03-.07-.06-.15-.08-.22l-.07-.23c-.02-.08-.04-.15-.05-.23l-.03-.12s-.01-.08-.02-.12l-.04-.23-.02-.23v-.12s-.01-.08-.01-.12v-.24c0-.08,0-.16,0-.24v-.24c.03-.16,.04-.31,.06-.47,.03-.15,.05-.31,.08-.46l.1-.46h0c-.12,.62-.2,1.24-.2,1.86,0,.62,.08,1.25,.29,1.83,.11,.29,.25,.57,.43,.83,.18,.26,.4,.48,.63,.68,.48,.4,1.04,.7,1.65,.85h0Z"/><path class="cls-10" d="M142.54,66.69c.14,.04,.28,.07,.42,.08,.14,.02,.28,.02,.43,0,.28-.02,.56-.1,.8-.25,.24-.14,.44-.35,.59-.59,.15-.24,.26-.5,.35-.78-.02,.07-.04,.14-.05,.21-.02,.07-.04,.14-.07,.2-.05,.13-.11,.27-.19,.39-.07,.13-.16,.24-.26,.35-.1,.11-.21,.2-.34,.27-.25,.15-.54,.23-.83,.24-.29,.01-.58-.03-.85-.13Z"/><path class="cls-10" d="M144.99,59.45c.04,.67,.02,1.34-.02,2.01-.05,.67-.14,1.34-.28,1.99-.07,.33-.17,.65-.28,.97-.11,.32-.24,.63-.41,.92-.17,.29-.37,.57-.61,.8-.24,.23-.53,.42-.85,.53,.31-.12,.6-.31,.83-.55,.24-.24,.43-.51,.59-.8,.32-.59,.52-1.23,.67-1.88,.15-.65,.24-1.32,.29-1.99,.03-.33,.05-.67,.06-1,.01-.34,.02-.67,0-1.01Z"/><path class="cls-10" d="M137.35,53.48c.2-.13,.45-.18,.7-.18,.24,0,.49,.07,.71,.16,.11,.04,.22,.11,.32,.17l.04,.02,.04,.03,.08,.05c.05,.03,.1,.07,.15,.1,.09,.08,.19,.15,.28,.23,.09,.09,.17,.17,.25,.26-.09-.08-.18-.16-.27-.24-.09-.08-.19-.15-.28-.22l-.15-.1-.07-.05-.04-.02-.04-.02c-.11-.06-.21-.12-.32-.16-.22-.1-.45-.16-.69-.17-.12,0-.24,0-.36,.02-.12,.02-.23,.06-.34,.11Z"/><path class="cls-10" d="M137.09,53.1c-.11-.12-.23-.23-.35-.33-.12-.1-.25-.2-.38-.29-.27-.18-.55-.33-.85-.44-.3-.11-.62-.18-.93-.19-.04,0-.08,0-.12,0-.04,0-.08,0-.12,0-.08,0-.16,.01-.24,.02-.16,.02-.32,.06-.47,.1,.3-.11,.63-.17,.95-.17,.16,0,.32,.02,.48,.05,.16,.03,.32,.07,.47,.13,.3,.11,.59,.27,.85,.46,.26,.19,.51,.41,.71,.66Z"/><path class="cls-10" d="M132.56,59.62c.08-.16,.15-.32,.23-.48,.08-.16,.15-.32,.22-.48,.15-.32,.29-.64,.43-.96,.28-.64,.55-1.3,.77-1.96,.22-.67,.44-1.34,.73-1.98,.15-.32,.32-.64,.56-.9,.12-.13,.26-.25,.43-.32,.17-.07,.36-.07,.52-.02h0c-.09-.01-.17-.02-.26-.02-.09,0-.17,.03-.25,.06-.16,.07-.29,.19-.4,.32-.11,.13-.21,.28-.29,.43-.09,.15-.17,.31-.24,.47-.15,.32-.28,.64-.41,.97-.13,.33-.25,.66-.36,.99-.12,.33-.24,.66-.36,.99-.12,.33-.25,.66-.39,.98-.28,.65-.58,1.29-.92,1.9h0Z"/><path class="cls-10" d="M133.87,53.45c-.22,.23-.41,.48-.58,.74l-.13,.2c-.04,.06-.08,.13-.13,.2l-.12,.2-.11,.21c-.3,.55-.56,1.13-.77,1.72-.05,.15-.1,.3-.15,.45-.02,.08-.05,.15-.07,.23l-.06,.23c-.04,.15-.08,.3-.12,.46l-.09,.46-.05,.23-.03,.23-.07,.47c-.01,.08-.02,.16-.03,.24l-.02,.24-.04,.47,.03-.47v-.24c.02-.08,.02-.16,.04-.24l.06-.47,.03-.24,.04-.23,.09-.47c.03-.15,.08-.31,.11-.46l.06-.23c.02-.08,.05-.15,.07-.23,.05-.15,.09-.3,.14-.45,.22-.6,.47-1.18,.78-1.73,.31-.55,.67-1.08,1.12-1.53Z"/><path class="cls-10" d="M137.24,53.33c-.07-.04-.15-.04-.22-.02-.07,.02-.13,.07-.19,.12-.11,.11-.18,.25-.24,.38-.13,.28-.19,.58-.28,.88-.08,.3-.18,.59-.27,.89-.09,.29-.19,.59-.29,.88-.1,.29-.21,.58-.34,.86-.13,.28-.26,.56-.42,.83-.31,.54-.68,1.04-1.13,1.47h0c.42-.46,.78-.97,1.08-1.5,.3-.54,.56-1.1,.78-1.68,.11-.29,.21-.58,.3-.88,.09-.3,.17-.6,.24-.89,.04-.15,.08-.3,.12-.45,.04-.15,.1-.3,.16-.44,.03-.07,.07-.14,.11-.21,.04-.07,.09-.13,.15-.18,.06-.05,.13-.1,.2-.12,.08-.02,.16-.01,.23,.03h0Z"/><path class="cls-10" d="M136.82,52.83c.04-.08,.09-.14,.15-.21,.06-.06,.12-.12,.19-.17,.14-.1,.29-.18,.46-.23,.33-.1,.69-.09,1.02-.02,.34,.08,.66,.21,.96,.37,.3,.16,.59,.35,.85,.56l-.21-.14c-.07-.05-.14-.09-.22-.13-.07-.05-.15-.09-.22-.13-.07-.04-.15-.08-.22-.12-.3-.15-.62-.29-.95-.36-.33-.08-.67-.09-1,0-.16,.05-.32,.12-.45,.22-.14,.1-.26,.22-.36,.36Z"/><path class="cls-10" d="M140.75,53.38c.24,.19,.45,.41,.65,.64,.1,.11,.2,.23,.29,.35,.09,.12,.18,.24,.27,.37,.17,.25,.32,.52,.46,.79,.14,.27,.27,.54,.39,.82,.03,.07,.06,.14,.08,.21l.08,.21,.08,.21c.03,.07,.05,.14,.08,.21,.06,.14,.11,.28,.17,.42,.06,.14,.12,.28,.19,.41,.14,.27,.28,.53,.45,.78,.17,.25,.35,.49,.58,.7h0c-.24-.19-.43-.43-.61-.67-.18-.25-.33-.51-.47-.78-.14-.27-.26-.55-.36-.84-.05-.14-.1-.29-.15-.43l-.07-.22c-.03-.07-.05-.14-.08-.21-.11-.28-.23-.56-.37-.83-.14-.27-.31-.52-.48-.77-.35-.5-.73-.97-1.17-1.38h0Z"/><path class="cls-10" d="M134.64,51.98c-.23,.01-.46,.07-.67,.16-.05,.02-.1,.05-.16,.07-.05,.03-.1,.05-.15,.08l-.14,.09s-.09,.07-.14,.1c-.36,.28-.66,.63-.92,1.01l-.05,.07-.05,.07-.1,.14-.1,.14-.09,.15c-.06,.1-.12,.2-.18,.3l-.17,.3c-.03,.05-.06,.1-.08,.15l-.08,.15-.16,.31c-.1,.21-.2,.41-.3,.62,.09-.21,.18-.42,.27-.63l.15-.31,.07-.16c.03-.05,.05-.1,.08-.15l.16-.3c.06-.1,.12-.2,.18-.3l.09-.15,.1-.14,.1-.14,.05-.07,.05-.07c.27-.37,.57-.73,.94-1.01,.05-.03,.09-.07,.14-.1l.15-.09s.1-.05,.15-.08c.05-.03,.1-.05,.16-.07,.22-.08,.45-.13,.68-.13Z"/><path class="cls-10" d="M130.73,56.57c-.12,.31-.26,.61-.4,.91-.07,.15-.15,.3-.22,.45-.08,.15-.15,.29-.24,.44-.16,.29-.33,.57-.51,.86l-.13,.21c-.04,.07-.09,.14-.12,.22l-.06,.11-.05,.11c-.04,.07-.07,.15-.1,.23-.13,.3-.23,.62-.3,.94-.07,.32-.12,.65-.14,.98-.02,.33-.02,.66,0,.99,0,.17,.02,.33,.03,.5,.01,.17,.02,.33,.02,.5h0c0-.17-.02-.33-.04-.49-.02-.16-.04-.33-.05-.5-.03-.33-.04-.66-.02-1,.03-.66,.19-1.33,.46-1.93,.04-.07,.07-.15,.11-.22l.06-.11,.06-.11c.08-.14,.17-.28,.26-.43,.17-.28,.33-.57,.49-.87l.23-.44c.08-.15,.15-.29,.23-.44,.15-.3,.29-.59,.43-.89h0Z"/><path class="cls-10" d="M133.24,52.2c-.28,.23-.55,.48-.8,.74-.25,.26-.49,.54-.71,.83-.22,.29-.43,.59-.61,.91-.18,.32-.35,.64-.51,.97-.32,.65-.64,1.31-.97,1.96-.17,.33-.34,.65-.52,.97-.18,.32-.37,.63-.6,.91h0c.11-.15,.21-.3,.3-.46,.09-.16,.18-.32,.27-.48l.13-.24,.12-.24,.25-.49c.33-.65,.65-1.3,.99-1.95,.17-.32,.34-.64,.52-.96,.04-.08,.09-.16,.14-.24l.07-.12s.05-.08,.07-.12c.1-.16,.2-.31,.31-.45,.22-.29,.46-.57,.72-.83,.26-.26,.53-.5,.83-.72h0Z"/><path class="cls-10" d="M131.11,65.96c-.19-.12-.33-.3-.44-.49-.11-.19-.2-.4-.27-.6-.07-.21-.12-.42-.17-.64-.04-.22-.07-.43-.09-.65,.02,.11,.04,.22,.06,.32,.02,.11,.04,.21,.07,.32,.05,.21,.11,.42,.18,.63,.03,.1,.07,.21,.11,.31,.04,.1,.09,.2,.14,.29,.05,.1,.11,.19,.18,.27,.07,.09,.14,.17,.23,.24Z"/><path class="cls-10" d="M130.77,64.05c-.06,.05-.14,.07-.23,.07-.08,0-.16-.04-.22-.1-.03-.03-.05-.06-.08-.1-.02-.04-.04-.07-.05-.11-.01-.04-.02-.08-.03-.11,0-.04-.01-.08-.02-.12,.02,.04,.03,.07,.04,.11,.01,.04,.03,.07,.05,.1,.04,.07,.07,.13,.12,.18,.05,.05,.12,.09,.19,.1,.07,.01,.15,0,.22-.03Z"/><path class="cls-10" d="M131.79,57.37c-.32,.51-.6,1.03-.85,1.57-.13,.27-.25,.54-.35,.82-.1,.28-.19,.57-.25,.86-.07,.29-.11,.58-.14,.88-.03,.3-.03,.59,0,.89,0,.07,.02,.15,.03,.22,.01,.07,.02,.15,.04,.22,.02,.07,.03,.15,.05,.22l.07,.21c.1,.28,.23,.55,.39,.8h0c-.18-.24-.32-.5-.43-.78-.11-.28-.17-.58-.2-.88,0-.07-.01-.15-.02-.22v-.23c0-.15,0-.3,.02-.45,.03-.3,.08-.59,.16-.88,.15-.58,.35-1.14,.59-1.69,.12-.27,.26-.54,.41-.8,.15-.26,.31-.51,.48-.75h0Z"/><path class="cls-10" d="M132.97,67.11c-.1-.06-.2-.14-.29-.22-.09-.08-.18-.16-.27-.25-.17-.18-.32-.37-.46-.57-.28-.4-.48-.86-.63-1.32-.07-.23-.12-.47-.17-.71-.02-.12-.04-.24-.05-.36l-.02-.18v-.18c-.02-.24-.02-.49-.01-.73,0-.12,.02-.24,.03-.37l.04-.36c-.05,.49-.06,.97-.03,1.46v.18l.03,.18c.01,.12,.03,.24,.05,.36,.05,.24,.1,.48,.17,.71,.07,.23,.16,.46,.26,.68,.1,.22,.22,.43,.35,.64,.13,.2,.28,.4,.45,.57,.16,.18,.34,.35,.54,.49Z"/><path class="cls-10" d="M144.95,58.57l-.04-.34-.04-.34c-.03-.22-.05-.45-.08-.67-.03-.22-.06-.45-.09-.67-.02-.11-.03-.22-.05-.34l-.03-.17c-.01-.06-.02-.11-.03-.17,.07,.22,.11,.44,.16,.66,.04,.22,.07,.45,.1,.67,.03,.23,.05,.45,.07,.68,.02,.23,.04,.45,.04,.68Z"/><path class="cls-10" d="M136.07,52.28c-.04-.09-.05-.18-.03-.28,.01-.1,.06-.19,.12-.26,.06-.08,.14-.14,.22-.19,.04-.02,.08-.04,.13-.07,.04-.02,.09-.04,.13-.06,.18-.07,.36-.12,.55-.16,.19-.03,.37-.05,.56-.05-.09,.01-.19,.02-.28,.04-.09,.01-.18,.03-.28,.05-.18,.04-.36,.1-.53,.17-.17,.07-.34,.15-.46,.29-.12,.13-.17,.33-.12,.52Z"/><path class="cls-10" d="M135.05,51.88c-.02-.05-.03-.11-.02-.17,0-.06,.02-.12,.04-.17,.02-.05,.05-.11,.09-.15,.04-.04,.09-.08,.14-.11-.04,.05-.07,.09-.1,.13-.03,.05-.06,.09-.08,.14-.04,.1-.06,.21-.07,.32Z"/><path class="cls-10" d="M129.14,62.05c0,.21,.01,.41,.03,.62,.01,.2,.03,.41,.06,.61,.05,.41,.12,.81,.24,1.2,.06,.2,.13,.39,.22,.57,.09,.18,.2,.36,.33,.51,.14,.15,.3,.27,.49,.34,.19,.07,.4,.09,.6,.06-.2,.03-.41,.03-.61-.04-.2-.07-.37-.19-.52-.34-.14-.15-.26-.33-.35-.51-.09-.19-.17-.38-.23-.58-.12-.4-.19-.8-.23-1.21-.04-.41-.06-.82-.04-1.23Z"/><path class="cls-10" d="M143.59,66.77c0,.06,0,.12,0,.19,0,.03,0,.06,0,.09,0,.03,0,.06,.01,.09,.02,.12,.06,.24,.11,.35,.05,.11,.12,.21,.2,.31,.08,.1,.18,.17,.27,.25-.03-.02-.05-.03-.08-.05-.03-.02-.06-.03-.08-.05-.05-.04-.1-.08-.14-.12-.09-.09-.16-.2-.22-.31-.06-.12-.09-.24-.1-.37-.01-.13,0-.26,.03-.38Z"/><path class="cls-10" d="M141.72,67.48c.02,.09,.05,.17,.07,.26,.03,.08,.06,.17,.09,.25,.03,.08,.08,.16,.12,.23,.05,.08,.1,.15,.15,.22-.07-.05-.14-.12-.19-.19-.05-.07-.1-.15-.14-.24-.07-.17-.12-.35-.12-.53Z"/><g><rect class="cls-15" x="131.82" y="59.63" width="2.1" height="3.49" rx="1.05" ry="1.05" transform="translate(6.86 -13.07) rotate(5.78)"/><path class="cls-8" d="M133.27,60.22c-.09,0-.18,.02-.26,.04-.08,.02-.16,.06-.23,.11-.07,.04-.14,.1-.19,.16-.06,.06-.1,.13-.14,.21-.04,.07-.06,.15-.07,.24-.01,.08-.02,.17-.04,.26-.03,.18-.06,.35-.1,.52,0-.18,0-.36,.01-.53,0-.09,.01-.18,.02-.27,0-.09,.04-.18,.08-.27,.08-.17,.22-.31,.38-.4,.08-.04,.17-.07,.26-.08,.09-.01,.18,0,.27,.01Z"/><path class="cls-8" d="M132.74,62.06c.02-.05,.04-.1,.07-.14l.06-.13,.06-.13s.04-.09,.07-.14c.02,.05,.02,.11,.01,.16,0,.05-.02,.11-.05,.16-.02,.05-.06,.09-.09,.13-.04,.04-.08,.07-.14,.09Z"/></g><path class="cls-16" d="M133.48,63.09c-.03,.27-.27,.47-.55,.45-.27-.03-.47-.27-.45-.55,.03-.27,.27-.47,.55-.45,.27,.03,.47,.27,.45,.55Z"/></g><path class="cls-15" d="M136.96,171.25l-.19,.99s1,2.85,3.37,3.65,2.89-3.29,2.89-3.29l-6.06-1.35Z"/><g><path class="cls-16" d="M134.79,178.23c.31,.85,.55,1.73,.73,2.62,.29,1.46,.96,3.81,3.43,4.29h5.6c1.17,0,1.98-1.18,1.53-2.26l-.02-.05c-.03-.08-.08-.15-.12-.23h0c-.06-.09-.13-.18-.21-.26l-2.02-2.04s.57-4.82-.68-5.98c0,0,.5-.76,.24-1.45-.41-1.12-3.18-.71-3.18-.71l-1.06-.04c-.6-.02-1.1,.46-1.1,1.07v.4s-.97-.04-1.11-1.5c0,0-1.34,1.13-1.79,2.86,0,0-.71-.03-.77,1.01-.03,.53,.26,1.47,.55,2.28Z"/><path class="cls-9" d="M134.79,178.23c.31,.85,.55,1.73,.73,2.62,.29,1.46,.96,3.81,3.43,4.29h5.6c1.17,0,1.98-1.18,1.53-2.26l-.02-.05c-.03-.08-.08-.15-.12-.23h0c-.34-.16-.68,.13-.96,.52-.62,.86-1.66,1.31-2.72,1.23-.93-.07-2.1-.21-3.31-.5-1.95-.46-2.53-2.64-2.74-3.79-.11-.58-.26-1.16-.47-1.71-.68-1.77-.71-3.41-.71-3.41,0,0-.71-.03-.77,1.01-.03,.53,.26,1.47,.55,2.28Z"/><path class="cls-9" d="M144.97,183.26h0c-.06,0-6.36-.37-9.09-4.03-.05-.06-.03-.15,.03-.19,.06-.05,.15-.03,.19,.03,2.66,3.55,8.82,3.91,8.89,3.91,.08,0,.14,.07,.13,.15,0,.07-.07,.13-.14,.13Z"/><path class="cls-9" d="M135.36,177.76h-.02c-.08-.01-.13-.08-.12-.16,.35-2.54,1.52-3.99,1.56-4.05,.05-.06,.14-.07,.2-.02,.06,.05,.07,.14,.02,.2-.01,.01-1.17,1.46-1.5,3.91,0,.07-.07,.12-.14,.12Z"/><path class="cls-9" d="M141.38,174.45c-.06,0-.11-.04-.13-.09-.03-.07,.01-.15,.09-.18,1.06-.37,1.73,0,1.75,.01,.07,.04,.09,.12,.05,.19-.04,.07-.12,.09-.19,.05-.02-.01-.59-.32-1.52,.01-.02,0-.03,0-.05,0Z"/><path class="cls-12" d="M142.93,176.03c-.27,0-.6-.03-1-.13-.12-.03-.2-.15-.17-.28,.03-.12,.15-.2,.28-.17,1.03,.25,1.55,.02,1.56,.01,.12-.05,.25,0,.31,.11,.05,.11,0,.25-.11,.31-.02,0-.31,.15-.87,.15Z"/><path class="cls-12" d="M143.1,177.32c-.27,0-.6-.03-1-.13-.12-.03-.2-.15-.17-.28,.03-.12,.15-.2,.28-.17,1.03,.25,1.55,.02,1.56,.01,.12-.05,.25,0,.31,.11,.05,.11,0,.25-.11,.31-.02,0-.31,.15-.87,.15Z"/><path class="cls-12" d="M143.1,178.66c-.27,0-.6-.03-1-.13-.12-.03-.2-.15-.17-.28,.03-.12,.16-.2,.28-.17,1.03,.25,1.55,.02,1.56,.01,.12-.05,.25,0,.31,.11,.05,.11,0,.25-.11,.31-.02,0-.31,.15-.87,.15Z"/><path class="cls-9" d="M143.7,180.29s-1.39-.35-2.71,.13v-4.01c0-1.3-.92-2.43-2.2-2.67-.17-.03-.34-.06-.53-.08-.76-.08-1.36-.68-1.45-1.43,0-.05-.01-.1-.01-.15,0,0-.38,.93,.15,1.96,.22,.43,.69,.92,1.16,1.33,.85,.75,1.34,1.82,1.38,2.94l-.07,1.85c-.01,.3,.12,.59,.37,.77,.43,.32,1.26,.6,2.38,.25,1.76-.56,2.12-.31,2.12-.31l-.58-.58Z"/></g><g class="cls-1"><path class="cls-2" d="M133.8,140.65l-.1-11.89s.43,6.27,1.1,11.89h-1Z"/></g><g class="cls-1"><path class="cls-2" d="M127.74,92.29l-1.69,.18s-2.05,.13-3.02,1.75c0,0,.38-1.06,2.04-2.19,.64-.43,1.47-.46,2.13-.06l.54,.32Z"/></g><g class="cls-1"><path class="cls-2" d="M151.07,131.83l-5.07-8.79s.67-11.99,.24-19.14c.53,5.89,2.1,21.08,4.83,27.92Z"/></g><g class="cls-1"><path class="cls-2" d="M150.75,100.24c-2.73-1.69-3.44-4.59-3.47-4.69,.98,2.93,3.19,3.66,3.19,3.66h0s.11,.38,.28,1.02Z"/></g><g class="cls-1"><path class="cls-12" d="M146,101.35c-.39-.05-.82-.09-1.26-.12h0c-.34-12.25-1.16-17.63-1.62-19.76,.25,.99,.44,1.99,.58,3l2.31,16.88Z"/></g><g class="cls-1"><path class="cls-2" d="M128.35,92.21s-.06-.63-.96-1.16l-.68-6.23s.68,3.94,2.44,7.3l-.81,.1Z"/></g><g class="cls-1"><path class="cls-2" d="M139.24,96.82c-5.72,2.6-9.42,3.53-9.42,3.53-1.63,.89-2.62,1-2.62,1,1.26-.02,3.02-.28,3.02-.28l-1.1,3.23c.47-1.09,1.62-3.33,1.62-3.33h0c5.63-1.1,8.51-4.14,8.51-4.14Z"/></g><path class="cls-2" d="M141.3,94.78c-.44-.26-.82-.62-1.13-1.02-.32-.4-.57-.85-.78-1.32-.09-.24-.19-.48-.25-.73l-.05-.18c-.02-.06-.03-.12-.05-.19l-.07-.38c-.03-.12-.04-.25-.05-.38l-.04-.38c-.01-.25-.01-.51-.02-.76,.01,.25,.02,.51,.04,.76l.05,.38c.02,.13,.03,.25,.06,.38l.08,.37c.01,.06,.03,.12,.05,.18l.05,.18c.06,.25,.16,.48,.25,.72,.2,.47,.45,.91,.76,1.31,.31,.4,.67,.77,1.11,1.04Z"/><path class="cls-2" d="M139.24,96.82c-.76,.35-1.53,.69-2.31,1.01-.77,.32-1.55,.64-2.33,.95-.79,.3-1.57,.59-2.37,.86-.8,.27-1.6,.52-2.41,.71l.61-.17c.2-.06,.4-.12,.6-.18,.2-.06,.4-.13,.6-.19,.2-.07,.4-.13,.6-.2,.79-.27,1.58-.57,2.36-.87,.78-.3,1.56-.61,2.34-.93,.39-.16,.77-.32,1.16-.49,.39-.16,.77-.33,1.16-.5Z"/><path class="cls-2" d="M129.82,100.35c-.2,.13-.4,.24-.61,.35-.21,.11-.43,.2-.65,.28-.22,.08-.44,.16-.67,.22-.23,.07-.46,.11-.69,.15,.11-.03,.23-.05,.34-.09,.11-.03,.23-.06,.34-.1,.22-.07,.45-.14,.66-.23,.22-.08,.43-.18,.65-.27,.21-.1,.42-.2,.63-.31Z"/><path class="cls-2" d="M146.04,92.65c.1,.64,.19,1.29,.28,1.94,.08,.65,.16,1.29,.23,1.94,.15,1.3,.27,2.59,.38,3.89,.1,1.3,.19,2.6,.25,3.9,.03,.65,.06,1.3,.08,1.95,.02,.65,.03,1.3,.04,1.95-.02-.65-.03-1.3-.06-1.95l-.04-.98c-.01-.33-.03-.65-.05-.98-.07-1.3-.16-2.6-.27-3.9-.1-1.3-.22-2.6-.36-3.89-.07-.65-.15-1.29-.23-1.94-.08-.65-.16-1.29-.26-1.94Z"/><path class="cls-2" d="M130.73,70.98l1.08,2.1,1.09,2.09c.73,1.39,1.46,2.79,2.22,4.16,.38,.69,.76,1.38,1.15,2.06l.29,.52c.09,.17,.18,.35,.26,.53,.16,.36,.29,.73,.4,1.11,.11,.38,.19,.77,.24,1.16,.03,.2,.04,.39,.06,.59l.05,.59,.18,2.35h0l-.21-2.35c-.04-.39-.06-.78-.11-1.17-.05-.39-.13-.77-.24-1.15-.11-.38-.24-.75-.4-1.1-.08-.18-.17-.36-.26-.53l-.28-.52c-.38-.69-.76-1.38-1.13-2.07-.74-1.38-1.49-2.77-2.23-4.16-.37-.69-.73-1.39-1.09-2.09-.36-.7-.71-1.4-1.06-2.11h0Z"/><path class="cls-2" d="M138.91,89.1c-.3-.19-.65-.3-1-.31-.35-.01-.71,.08-1.02,.25-.63,.32-1.28,.63-1.92,.95l-.96,.47-.95,.48-1.91,.96h0l-1.18,.14-1.18,.14c-.79,.09-1.58,.18-2.37,.26h0c.79-.11,1.57-.2,2.36-.3l1.18-.14,1.18-.14h0l1.92-.94,.96-.47,.95-.48c.64-.32,1.27-.65,1.91-.96,.31-.17,.68-.26,1.04-.24,.36,.01,.71,.13,1,.34Z"/><polygon class="cls-2" points="127.39 91.05 127.23 89.72 127.08 88.4 126.79 85.75 126.51 83.09 126.37 81.76 126.24 80.44 126.39 81.76 126.54 83.09 126.84 85.74 127.12 88.39 127.26 89.72 127.39 91.05"/><path class="cls-2" d="M128.35,92.21c-.03-.13-.08-.24-.15-.36-.06-.11-.14-.21-.23-.31-.08-.1-.18-.18-.28-.27-.05-.04-.1-.08-.15-.12-.05-.04-.11-.07-.16-.11,.06,.03,.11,.06,.17,.09,.05,.04,.11,.07,.16,.11,.1,.08,.2,.17,.29,.26,.09,.1,.16,.21,.22,.32,.06,.12,.11,.24,.11,.37Z"/><path class="cls-2" d="M127.39,91.05c-.3-.14-.62-.24-.93-.33-.32-.08-.64-.15-.97-.19-.33-.04-.66-.06-.99-.06-.33,0-.66,.03-.99,.07,.16-.02,.33-.06,.49-.08,.17-.02,.33-.03,.5-.03,.33-.01,.66,0,.99,.05,.33,.04,.66,.11,.97,.2,.16,.05,.32,.1,.47,.16,.15,.06,.31,.13,.45,.21Z"/><path class="cls-2" d="M128.2,82.53c-.08,.21-.17,.41-.28,.6-.1,.19-.22,.38-.35,.56-.13,.18-.26,.36-.41,.52-.14,.17-.3,.32-.47,.47,.15-.16,.3-.32,.44-.49,.14-.17,.27-.34,.4-.52,.13-.18,.24-.36,.35-.55,.11-.19,.22-.38,.31-.58Z"/><path class="cls-11" d="M140.17,72.84c-.12,.25-.3,.47-.5,.66-.21,.19-.45,.34-.7,.45-.51,.24-1.06,.34-1.62,.37-.56,.03-1.11-.02-1.66-.12-.55-.1-1.08-.24-1.61-.41,.53,.15,1.07,.28,1.62,.37,.14,.03,.27,.04,.41,.06,.14,.02,.28,.03,.41,.04,.28,.01,.55,.03,.83,0,.55-.02,1.1-.13,1.6-.36,.25-.11,.49-.26,.7-.44,.21-.18,.4-.39,.52-.64Z"/><path class="cls-2" d="M131.29,99.93c-.18,.33-.35,.66-.52,1-.17,.33-.34,.67-.51,1-.33,.67-.66,1.35-.97,2.04-.32,.68-.61,1.37-.89,2.07-.14,.35-.28,.7-.4,1.05-.14,.35-.25,.71-.38,1.06,.23-.72,.47-1.43,.75-2.12,.28-.7,.57-1.39,.88-2.08,.31-.68,.64-1.36,.98-2.03,.34-.67,.69-1.33,1.06-1.99Z"/><path class="cls-2" d="M146.67,91.88c0,.36,.02,.73,.06,1.09,.04,.36,.09,.72,.16,1.08,.14,.71,.35,1.41,.65,2.08,.3,.66,.68,1.29,1.18,1.82,.49,.53,1.09,.96,1.75,1.27l-.25-.12-.12-.06-.12-.07c-.08-.05-.16-.09-.24-.14l-.23-.15c-.29-.21-.58-.45-.82-.72-.5-.53-.89-1.16-1.2-1.82-.29-.67-.5-1.37-.64-2.09-.14-.72-.21-1.45-.19-2.17Z"/><path class="cls-2" d="M147.2,91.71c.05,.27,.14,.53,.25,.78,.11,.25,.23,.5,.39,.72,.15,.22,.33,.43,.54,.61,.21,.18,.44,.32,.7,.42,.25,.1,.52,.16,.79,.18,.07,0,.14,0,.2,0,.07,0,.14,0,.2,0,.07,0,.14,0,.2-.02l.2-.03c.54-.09,1.06-.28,1.56-.51-.49,.24-1.01,.45-1.55,.54l-.2,.03c-.07,0-.14,.01-.21,.02-.07,0-.14,.01-.21,0-.07,0-.14,0-.21,0-.28-.02-.55-.08-.81-.18-.52-.2-.95-.59-1.25-1.05-.3-.46-.51-.98-.6-1.52Z"/><path class="cls-2" d="M126.05,92.47c-.17,.02-.35,.06-.52,.1-.17,.04-.34,.09-.51,.15-.33,.11-.65,.26-.95,.44-.3,.19-.57,.41-.78,.69-.22,.27-.38,.59-.48,.93,.04-.17,.09-.34,.17-.5,.08-.16,.17-.31,.28-.45,.21-.28,.49-.52,.79-.71,.3-.19,.63-.33,.96-.44,.34-.11,.68-.18,1.04-.21Z"/><path class="cls-2" d="M126.05,78.7c-.04-.25-.09-.5-.15-.74-.03-.12-.06-.25-.09-.37-.03-.12-.06-.24-.1-.37-.14-.49-.29-.97-.48-1.44-.19-.47-.41-.93-.66-1.36-.26-.43-.57-.84-.93-1.2,.37,.35,.69,.75,.96,1.18,.26,.43,.48,.89,.67,1.36,.19,.47,.34,.96,.47,1.45,.13,.49,.23,.99,.3,1.49Z"/><path class="cls-2" d="M137.93,97.82l-.8,5.08-.81,5.08c-.54,3.39-1.1,6.77-1.63,10.16l-.4,2.54c-.13,.85-.23,1.7-.32,2.55-.17,1.71-.26,3.42-.26,5.13,.03,3.43,.04,6.86,.06,10.29h0l-.06-5.14c-.02-1.71-.04-3.43-.05-5.14,0-1.72,.09-3.43,.27-5.14,.09-.85,.2-1.7,.33-2.55l.41-2.54c.55-3.38,1.07-6.77,1.61-10.16l.81-5.08,.82-5.08h0Z"/><path class="cls-2" d="M146.04,101.51c.11,1.28,.22,2.56,.35,3.84,.12,1.28,.26,2.55,.39,3.83,.27,2.55,.58,5.1,.96,7.64,.19,1.27,.39,2.54,.6,3.8,.22,1.27,.44,2.53,.71,3.79,.26,1.26,.54,2.51,.86,3.75,.32,1.24,.69,2.47,1.16,3.67h0c-.48-1.19-.85-2.42-1.19-3.66-.33-1.24-.62-2.49-.88-3.75-.51-2.52-.93-5.05-1.29-7.59-.18-1.27-.34-2.54-.51-3.82-.16-1.27-.32-2.55-.46-3.82-.14-1.28-.27-2.55-.39-3.83-.12-1.28-.23-2.56-.32-3.84h0Z"/><path class="cls-2" d="M140.96,70.53l.7,1.82,.7,1.82,1.39,3.64c.24,.61,.44,1.23,.59,1.86,.08,.32,.14,.64,.19,.96,.05,.32,.09,.64,.13,.97l.23,1.94,.23,1.94-.25-1.93-.24-1.94c-.04-.32-.08-.65-.13-.97-.05-.32-.12-.64-.2-.95-.15-.63-.36-1.25-.6-1.85l-1.38-3.65-.69-1.82-.68-1.83Z"/><path class="cls-2" d="M152.54,92.15c-.02,.24-.05,.48-.07,.71l-.03,.36-.02,.36c-.02-.24-.02-.48,0-.72,.01-.12,.02-.24,.04-.36,.02-.12,.04-.24,.07-.35Z"/><path class="cls-2" d="M152.56,91.12c.13-.05,.27-.08,.41-.11,.14-.02,.28-.03,.43-.03,.14,0,.29,.02,.42,.07,.14,.04,.27,.11,.37,.21-.12-.08-.25-.13-.38-.17-.14-.03-.27-.05-.41-.05-.14,0-.28,0-.42,.02-.14,.02-.28,.04-.42,.07Z"/><path class="cls-2" d="M148.66,85.48l.1-1.25,.11-1.25,.11-1.25c.04-.41,.05-.83,.03-1.25-.02-.42-.07-.83-.14-1.24-.08-.41-.18-.81-.27-1.22l-.27-1.22-.26-1.22,.29,1.22,.28,1.22c.09,.41,.19,.81,.28,1.22,.08,.41,.13,.83,.15,1.24,.02,.42,0,.84-.03,1.25l-.11,1.25-.11,1.25-.12,1.25Z"/><path class="cls-12" d="M143.04,115.48c.1,.32,.2,.65,.31,.97,.11,.32,.21,.64,.32,.96,.22,.64,.46,1.28,.71,1.91,.24,.63,.5,1.26,.77,1.88l.2,.47,.21,.46c.14,.31,.29,.61,.44,.92-.31-.6-.61-1.21-.88-1.83-.28-.62-.54-1.25-.78-1.88-.24-.63-.47-1.27-.69-1.91-.22-.64-.42-1.29-.6-1.94Z"/><path class="cls-12" d="M144.31,101.92c.06,.53,.1,1.07,.12,1.6,.02,.54,.03,1.07,.03,1.61,0,1.07-.04,2.14-.13,3.21-.09,1.07-.22,2.13-.4,3.19l-.06,.4-.03,.2-.04,.2-.15,.79c-.05,.26-.11,.52-.18,.78l-.18,.78c.23-1.05,.46-2.09,.62-3.15,.17-1.06,.29-2.12,.38-3.19,.1-1.07,.14-2.14,.15-3.21,0-.54,0-1.07-.02-1.61-.02-.54-.05-1.07-.1-1.6Z"/><path class="cls-12" d="M145.67,103.41c.04,.98,.06,1.96,.05,2.93-.01,.98-.04,1.96-.11,2.93-.08,.98-.19,1.95-.39,2.91-.1,.48-.23,.95-.42,1.41-.1,.23-.21,.44-.35,.64-.08,.1-.15,.19-.25,.27-.09,.08-.2,.14-.32,.18,.12-.04,.22-.11,.31-.19,.09-.08,.17-.17,.24-.27,.14-.2,.25-.42,.34-.65,.18-.45,.31-.93,.41-1.4,.2-.96,.3-1.93,.37-2.91,.08-.97,.11-1.95,.13-2.93,0-.49,0-.98,0-1.47,0-.49,0-.98-.02-1.47Z"/><path class="cls-12" d="M142.87,114.81c-.12-.34-.29-.65-.49-.95-.2-.3-.42-.57-.68-.83-.06-.06-.13-.12-.19-.19-.06-.06-.13-.12-.2-.18-.07-.06-.14-.12-.21-.17l-.22-.16-.11-.08-.11-.07-.23-.15c-.15-.09-.31-.18-.46-.27,.16,.08,.32,.16,.48,.25l.23,.14,.11,.07,.11,.08,.22,.16c.07,.06,.14,.11,.21,.17,.07,.06,.14,.11,.2,.18,.07,.06,.13,.12,.2,.19,.25,.26,.48,.54,.67,.84,.19,.3,.36,.63,.46,.97Z"/><path class="cls-12" d="M144.18,103.41c-.44-.02-.89-.04-1.33-.05-.44-.01-.89-.02-1.33-.02-.44,0-.89,0-1.33,.01-.22,0-.44,.01-.67,.02-.22,0-.44,.02-.67,.03,.44-.04,.89-.08,1.33-.09,.44-.02,.89-.03,1.34-.03,.45,0,.89,.01,1.33,.03,.44,.02,.89,.05,1.33,.09Z"/><path class="cls-12" d="M142.87,115.16c-.15-.15-.31-.3-.48-.44-.16-.14-.33-.28-.51-.41-.35-.26-.71-.51-1.08-.72-.37-.22-.77-.4-1.17-.56l-.31-.11c-.1-.03-.21-.06-.31-.09l-.16-.05c-.05-.01-.11-.02-.16-.03l-.32-.06c.43,.06,.86,.15,1.27,.31,.41,.15,.81,.33,1.18,.55,.38,.22,.74,.46,1.08,.73,.34,.27,.67,.56,.96,.88Z"/><path class="cls-12" d="M146.87,142.39c-.24,.04-.48,.05-.73,.03-.24,0-.48-.04-.72-.09-.12-.02-.24-.06-.35-.09-.11-.04-.23-.07-.34-.12-.23-.09-.44-.21-.64-.34,.11,.05,.21,.12,.32,.16l.16,.07c.06,.02,.11,.04,.17,.06,.11,.04,.23,.08,.34,.11,.12,.03,.23,.06,.35,.08,.24,.05,.47,.08,.71,.1,.12,0,.24,.01,.36,.01,.12,0,.24,0,.36-.01Z"/><polygon class="cls-12" points="138.68 163.56 138.47 164.52 138.26 165.48 137.84 167.41 137.4 169.33 137.18 170.29 136.96 171.25 137.16 170.29 137.37 169.33 137.79 167.4 138.23 165.48 138.45 164.52 138.68 163.56"/><path class="cls-12" d="M143.82,142.79c-.49,.76-.89,1.56-1.25,2.38l-.14,.31-.13,.31-.26,.62-.47,1.26-.43,1.28-.38,1.29c-.07,.21-.12,.43-.18,.65l-.16,.65-.16,.65-.14,.66c-.09,.44-.19,.88-.28,1.32l-.23,1.33-.12,.66-.1,.67-.19,1.34c-.03,.22-.06,.45-.08,.67l-.07,.67-.15,1.34-.21,2.69h0l.18-2.69,.14-1.34,.07-.67c.02-.22,.05-.45,.08-.67l.19-1.34,.1-.67,.12-.66,.24-1.33c.09-.44,.19-.88,.29-1.32l.14-.66,.17-.65,.17-.65c.06-.22,.11-.44,.17-.65l.38-1.3,.42-1.28c.16-.42,.31-.85,.47-1.27l.26-.62,.13-.31,.14-.31c.37-.82,.78-1.63,1.28-2.37h0Z"/><path class="cls-12" d="M144.08,141.78c-.12,.14-.2,.3-.25,.47-.02,.09-.04,.17-.04,.26,0,.09,0,.18,.02,.27-.03-.09-.05-.18-.05-.27,0-.09,0-.19,.03-.28,.05-.18,.15-.35,.29-.46Z"/><path class="cls-12" d="M143.82,140.36c-.02,.06-.05,.12-.07,.19-.02,.06-.05,.12-.07,.19-.03,.13-.04,.26-.01,.39,.02,.13,.08,.25,.16,.35,.04,.05,.09,.1,.13,.15,.04,.05,.09,.1,.13,.15-.1-.09-.2-.18-.29-.28-.09-.1-.15-.23-.17-.37-.02-.14-.02-.28,.02-.41,.05-.13,.11-.24,.17-.36Z"/><polygon class="cls-12" points="137.68 132.5 138.46 133.48 139.23 134.46 140.77 136.42 142.3 138.39 143.06 139.37 143.82 140.36 143.04 139.39 142.27 138.41 140.73 136.45 139.21 134.48 138.44 133.49 137.68 132.5"/><path class="cls-12" d="M145.67,89.3l4.13,.1c.21,0,.41-.1,.53-.27l5.68-8.33c.22-.32,0-.74-.39-.75l-4.13-.1c-.21,0-.41,.1-.53,.27l-5.68,8.33c-.22,.32,0,.74,.39,.75Z"/><path class="cls-11" d="M150.57,82.83l.81,.02s.1-.02,.12-.06l1.15-1.68c.05-.08,0-.18-.09-.18l-.81-.02s-.1,.02-.12,.06l-1.15,1.68c-.05,.08,0,.18,.09,.18Z"/><g class="cls-1"><path class="cls-12" d="M156.09,80.51c-.05-.02-.11-.04-.18-.04l-4.13-.1c-.21,0-.41,.1-.53,.27l-5.68,8.33c-.06,.09-.09,.19-.08,.29-.27-.11-.39-.45-.21-.71l5.68-8.33c.12-.17,.32-.28,.53-.27l4.13,.1c.27,0,.46,.22,.47,.46Z"/></g><path class="cls-15" d="M141.85,88.33l1.97-1.79c.24-.22,.53-.37,.85-.43l2.98-.6c.12-.02,.24-.03,.35-.03l2.47,.08s-.03-.8,1.99-.56l.65-.06c.48-.05,.9,.32,.92,.81h0c0,.14-.03,.28-.09,.4l-.27,.54,.44,.54c.21,.26,.28,.6,.2,.92l-.07,.29,.1,.41c.07,.3,.03,.61-.11,.88l-.13,.25-.05,.66c-.01,.14-.07,.26-.16,.36-.2,.2-.6,.51-1.3,.64l-.97,1.14s-2.31,.47-3.08-2.04l-2.15,1.35c-.05,.03-.11,.06-.17,.09l-2.12,.81s-1.8-2.32-2.25-4.63Z"/><path class="cls-8" d="M153.27,86.34c-.13,0-.27,0-.4,0h-.4l-.81,.02c-.14,0-.27,0-.41,0-.14,0-.28-.04-.39-.12-.12-.07-.22-.17-.29-.29-.07-.12-.1-.26-.1-.39,.01,.27,.18,.52,.41,.65,.11,.06,.24,.1,.38,.11,.13,0,.27,0,.4,0h.81c.27,0,.54,0,.81,.03Z"/><path class="cls-8" d="M148.7,89.1c.18,.11,.39,.16,.6,.18,.21,.02,.42,.02,.63,0,.21-.02,.42-.04,.63-.08,.1-.02,.21-.04,.31-.06,.1-.02,.21-.05,.32-.05,.43,.01,.85,.03,1.27,.05,.1,0,.21,0,.32,.03,.1,.03,.2,.08,.29,.14l.49,.41-.5-.39c-.08-.06-.18-.11-.28-.13-.1-.03-.21-.02-.31-.03l-1.27-.04c-.1,0-.2,.03-.31,.05-.1,.02-.21,.04-.31,.06-.21,.03-.42,.06-.63,.07-.21,.01-.43,0-.64-.02-.21-.03-.42-.09-.6-.21Z"/><path class="cls-8" d="M153.9,88.58l-.39-.31-.19-.16c-.06-.05-.13-.1-.2-.13-.07-.03-.15-.05-.23-.06-.08,0-.16,0-.25-.01l-.5-.03c-.17,0-.33-.02-.5-.03-.08,0-.17-.01-.25,0-.08,0-.16,.03-.24,.04l-.97,.22h-.64l-.32,.02c-.11,0-.22,0-.31,.01-.2,.03-.37,.2-.41,.41-.05,.2,.04,.43,.22,.55h0c-.09-.05-.17-.13-.21-.23-.04-.1-.05-.21-.03-.32,.04-.22,.21-.4,.43-.45,.11-.02,.22-.01,.32-.01h.95l.98-.21c.08-.02,.16-.04,.25-.04,.08,0,.17,0,.25,0,.17,0,.33,0,.5,.01h.5c.08,.02,.16,.01,.25,.02,.08,.01,.17,.03,.24,.07,.08,.03,.15,.08,.21,.14l.19,.16,.37,.33h0Z"/><path class="cls-8" d="M149.42,89.3c-.1,0-.2,.05-.26,.13-.07,.08-.1,.18-.08,.28,.01,.1,.07,.18,.15,.25,.07,.07,.17,.11,.26,.15,.19,.07,.4,.1,.61,.1,.21,0,.41-.02,.62-.05h0c.21,.03,.42,.06,.62,.09,.21,.03,.42,.06,.62,.1h.02v.02c.03,.16,.07,.31,.13,.46,.06,.15,.12,.3,.22,.43h0c-.05-.06-.1-.13-.14-.2-.04-.07-.07-.14-.1-.22-.06-.15-.11-.31-.14-.46l.02,.02c-.21-.03-.42-.06-.62-.1-.21-.03-.41-.07-.62-.1h0c-.21,.02-.41,.03-.62,.03-.21,0-.42-.01-.62-.08-.1-.03-.2-.08-.28-.15-.04-.04-.08-.08-.1-.12-.03-.04-.05-.1-.06-.15-.02-.11,.03-.22,.1-.3,.07-.08,.18-.12,.28-.12Z"/><path class="cls-8" d="M153.44,88.19l-.36-.3c-.12-.09-.26-.17-.41-.21-.29-.1-.61-.05-.92-.05-.31,0-.62,0-.94,.02-.31,0-.62,.02-.94,.03h-.23c-.08,.02-.16,0-.24-.02-.15-.05-.29-.17-.35-.32-.06-.15-.06-.33,0-.47,.07-.15,.21-.26,.36-.31,.08-.02,.16-.03,.23-.04l.23-.03,.47-.05c.31-.04,.62-.07,.93-.11h0c-.62,.1-1.24,.18-1.85,.27-.14,.04-.27,.15-.33,.28-.07,.13-.07,.3-.01,.44,.06,.14,.18,.25,.32,.3,.07,.03,.15,.03,.22,.03h.23c.31-.01,.62-.02,.94-.03,.31-.01,.62-.03,.94-.04l.47-.02c.16,0,.32,.02,.47,.07,.15,.05,.29,.13,.41,.23,.12,.1,.23,.21,.35,.31h0Z"/><path class="cls-8" d="M148.54,90.72c.14-.12,.29-.22,.45-.32,.15-.1,.31-.19,.47-.28-.14,.12-.29,.22-.45,.32-.15,.1-.31,.19-.47,.28Z"/><path class="cls-8" d="M147.5,86.95c.32-.08,.65-.14,.97-.21,.33-.06,.65-.12,.98-.16-.32,.08-.65,.14-.97,.21-.33,.06-.65,.12-.98,.16Z"/></g></g></g></g></svg>